<svg width="62" height="43" viewBox="0 0 62 43" fill="none" xmlns="http://www.w3.org/2000/svg">
<path d="M61.466 20.23V21.3018C61.1839 22.0514 60.8862 22.7257 60.1851 23.1864C59.5849 23.5803 54.9499 25.2787 54.2848 25.3217C53.2464 25.3897 52.3773 24.861 51.7423 24.0983C51.495 23.9873 51.4614 23.1136 51.2033 23.2079C51.0004 23.2807 51.1 23.4072 51.0988 23.5338C51.0904 24.8669 51.3101 25.4088 50.603 26.6596C49.7027 28.253 48.1769 28.623 46.4602 28.0859C46.8348 31.145 43.848 33.4485 40.9381 32.3708C41.1986 34.8665 39.2695 36.9504 36.7353 36.8931C37.1963 40.0966 34.0571 42.2437 31.272 40.3747C31.1027 40.3878 30.6658 41.2615 30.4905 41.4739C28.2901 44.1474 24.6575 42.6209 23.8904 39.6323C21.5879 40.5704 19.235 39.6597 18.3094 37.3729C15.2387 39.4401 11.4176 36.6186 12.3659 33.0869C9.20513 33.2981 7.13314 30.6246 8.26277 27.6491C8.45605 27.1406 9.74534 25.231 9.48364 24.8729C8.15593 25.9901 7.17396 25.6809 5.67098 25.262C4.47652 24.929 1.40214 24.0518 0.669857 23.1972C0.331327 22.8021 0.210081 22.3498 0 21.8974V20.8256L6.18478 1.90079C7.49208 -0.439749 9.32638 0.300248 11.3792 0.916116C13.2987 1.4914 15.9721 1.95569 16.2783 4.28788C19.1954 4.42275 21.8472 3.21727 24.7907 3.45001C26.4906 3.58488 28.1292 4.29862 29.595 5.11023C32.4004 3.37601 35.1327 3.08359 38.2971 3.98352C39.2563 4.25684 44.0773 6.52338 44.6511 5.69864C44.3654 4.25088 44.4807 2.89859 45.8432 2.06192C46.5983 1.59763 50.1553 0.295474 51.064 0.0973457C52.645 -0.247588 53.7711 0.33128 54.5045 1.72056L61.466 20.23ZM46.5011 3.60636C46.1649 3.94772 46.0557 4.58387 46.2538 5.01713L53.1264 23.1996C53.3749 23.5051 53.8947 23.7498 54.2897 23.6567L59.3484 21.7602C59.7205 21.4773 59.8706 20.8734 59.7566 20.4353L52.8767 2.14189C52.5178 1.64656 52.0496 1.59286 51.4686 1.68953C50.7711 1.80531 47.7231 2.97737 46.9956 3.32588C46.836 3.40227 46.6211 3.48343 46.4987 3.60636H46.5011ZM8.61811 1.92347C8.21595 1.98076 7.83541 2.29466 7.67935 2.66824L1.67824 21.2457C1.61222 21.7924 1.92074 22.2089 2.39732 22.4381C3.74784 22.672 6.15476 23.9945 7.39724 24.0291C7.95065 24.0446 8.43564 23.6149 8.61931 23.1196L14.6096 4.55762C14.546 3.96443 14.3131 3.65649 13.7717 3.42375C12.9626 3.07643 9.81737 2.01895 9.03347 1.92347C8.87621 1.90437 8.77657 1.90079 8.61691 1.92347H8.61811ZM27.9731 6.06745C24.0764 3.90475 20.0489 6.09729 15.9637 6.0018L11.2279 20.4687C11.0034 21.2827 10.8762 22.1218 10.9278 22.9668C13.4632 20.4843 17.4355 22.2173 17.6492 25.5867C20.0777 25.0209 22.6443 26.7038 22.5711 29.2759C25.3825 28.5538 27.9515 30.6807 27.613 33.5607L29.2925 33.4414C29.152 33.2134 28.8555 33.217 28.6274 32.9711C28.0356 32.3361 28.4389 31.6212 29.224 31.5389C31.7642 32.6441 34.0715 34.3007 36.6765 35.2281C39.458 35.1362 40.2827 32.3051 37.8529 30.7272C36.1411 29.6161 33.9815 28.8283 32.2324 27.7303C31.4869 26.9186 32.2348 25.9781 33.2228 26.3923C35.823 27.6157 38.3451 29.332 40.9357 30.5267C44.4591 32.1511 46.1529 28.2005 43.6176 26.5594C41.3547 25.0937 37.9898 23.9646 35.9046 22.4226C34.931 21.7029 35.6333 20.6406 36.4976 20.8757C39.4147 22.351 42.2238 24.0494 45.1373 25.5282C46.2886 26.113 48.1757 27.5059 49.1265 25.9077C50.6366 23.3679 48.0761 21.6945 46.2105 20.5368C43.812 19.0484 41.0606 17.8919 38.5348 16.6017C37.8289 16.2412 36.9238 15.4964 36.1675 15.3783C32.1892 14.7553 28.4785 19.1188 23.7283 17.1185C22.8688 16.7568 20.4991 15.0107 20.6695 14.0117C20.7476 13.5581 21.6839 12.4087 22.0285 12.0161C23.7595 10.0372 25.9276 8.37576 27.7355 6.48638C27.8591 6.35748 28.0164 6.27871 27.9719 6.06864L27.9731 6.06745ZM45.3726 7.26099C42.5323 8.12034 40.051 6.1128 37.4304 5.43726C34.9754 4.80468 33.0919 5.07681 30.8939 6.28348C28.7066 7.48418 24.4078 11.5649 22.8832 13.576C22.3598 14.2659 22.6443 14.3566 23.2349 14.871C26.8987 18.0602 31.9191 13.2693 36.0751 13.6858C37.446 13.8231 38.2335 14.5965 39.3751 15.1754C42.3151 16.6661 45.8672 18.1151 48.4878 20.0653C49.2069 20.6012 49.7567 21.2589 50.4794 21.7781L50.639 21.389L45.3714 7.26219L45.3726 7.26099ZM13.2963 23.4729C12.8461 23.5493 12.3179 23.8859 12.0262 24.2356C11.6325 24.707 9.72493 28.2435 9.6361 28.7686C9.24115 31.0853 12.0418 32.3517 13.5124 30.7082C13.8605 30.3202 15.8461 26.668 15.9421 26.2145C16.2735 24.6342 14.9013 23.2031 13.2963 23.4729ZM17.726 35.7795C18.1798 35.3331 20.433 31.1366 20.7392 30.3752C21.8364 27.6431 18.4319 25.9686 16.8761 28.0931C16.163 29.067 14.8869 31.5687 14.3443 32.7252C13.8773 33.7195 13.6312 34.6075 14.3551 35.5766C15.1414 36.6317 16.8089 36.6818 17.726 35.7795ZM23.2589 30.8514C22.8016 30.929 22.3394 31.1987 22.0405 31.546C21.6467 32.0031 19.9517 35.1625 19.864 35.696C19.4655 38.0926 22.3502 39.2921 23.834 37.4911C24.1533 37.1043 25.8327 33.9976 25.9035 33.5918C26.2061 31.8611 25.0368 30.5518 23.2601 30.8514H23.2589ZM31.9347 38.915C32.3128 38.9412 32.6417 39.2945 32.9827 39.3661C35.0343 39.7922 35.9202 37.1616 34.2768 36.0612L31.3356 34.5144C32.6874 35.6972 32.6958 37.3836 31.9347 38.915ZM28.062 35.1362C26.8519 35.3415 25.3705 37.5102 25.3441 38.6309C25.3021 40.3412 27.6442 42.1638 29.1076 40.5764C29.6118 40.0297 30.805 37.6462 30.811 36.9325C30.823 35.6673 29.158 34.95 28.062 35.1362Z" fill="white"/>
</svg>
