<svg width="54" height="55" viewBox="0 0 54 55" fill="none" xmlns="http://www.w3.org/2000/svg">
<path d="M30.201 54.1327H23.0858C22.4121 53.9161 21.8146 53.7862 21.3742 53.1643C20.616 52.0925 20.5815 48.2911 20.2089 46.7814C20.1542 46.5613 20.1304 46.37 19.9316 46.2208C19.7114 46.056 17.9653 45.3463 17.7463 45.416L13.0425 48.8276C12.1415 49.4038 11.2357 49.3232 10.3942 48.6736C9.27895 47.8123 6.32953 44.77 5.41305 43.6333C4.75484 42.8164 4.49299 42.1199 4.91791 41.0866L8.71597 35.7996L7.82448 33.6319C7.69831 33.591 7.56381 33.5801 7.43527 33.5453C5.95818 33.1483 2.10775 33.0364 1.0889 32.2882C0.446168 31.8154 0.247398 31.2416 0.0807641 30.4885C0.268822 28.251 -0.172757 25.5925 0.0807641 23.4067C0.185505 22.4985 0.730636 21.731 1.53762 21.34L7.8221 20.3801C8.19345 20.2634 8.91712 18.4794 8.80762 18.1209C7.58881 16.2178 6.00103 14.5097 4.99527 12.4911C4.79888 11.7344 5.0774 11.0824 5.53207 10.5002C6.27835 9.54505 9.90383 5.80505 10.8108 5.16147C11.4928 4.67788 12.4414 4.67066 13.1615 5.06403L18.0725 8.74267C18.376 8.83169 19.9364 8.23262 20.1685 8.03172C20.3863 7.84406 20.3589 7.69129 20.4208 7.44709C20.8636 5.68716 20.8326 3.33778 21.367 1.68251C21.6051 0.946304 22.1978 0.332796 22.9596 0.174006C24.132 -0.0701946 29.3131 -0.0280911 30.6152 0.121076C31.5127 0.223327 32.2447 0.81037 32.516 1.6777C33.079 3.48214 32.9731 5.92655 33.4611 7.80196C34.136 8.16766 35.3191 8.96402 36.0511 8.62358C37.3068 7.98842 40.0705 5.19274 41.2845 5.03997C42.0653 4.94133 42.6331 5.10012 43.2473 5.57889C44.3363 6.43059 47.3572 9.51257 48.2284 10.6193C49.0997 11.726 48.983 12.6042 48.2522 13.7698C47.8297 14.4435 45.016 17.9128 45.0493 18.2845L46.0955 20.5798C47.8606 21.1043 49.9197 21.0682 51.6682 21.5409C52.6478 21.8068 53.356 22.5238 53.4488 23.58C53.6107 25.4373 53.6107 29.0534 53.4488 30.9108C53.3893 31.6001 53.0132 32.2665 52.4371 32.6478C51.2992 33.4021 47.7833 33.3095 46.299 33.757C46.136 33.8063 46.0348 33.8292 45.9205 33.9735C45.8527 34.0589 45.1266 35.8176 45.0755 36.0053C45.0386 36.1376 44.9957 36.2591 45.0421 36.3987C45.6277 37.758 48.3879 40.4358 48.5712 41.7181C48.6759 42.4519 48.6141 42.9873 48.1689 43.5707C47.3488 44.6486 43.9554 48.0866 42.8914 48.9118C42.2236 49.4303 41.4595 49.5927 40.6716 49.233L35.6833 45.629L33.2278 46.5721C33.1564 46.72 33.1362 46.8836 33.0993 47.0424C32.766 48.4667 32.6136 52.1682 31.9114 53.1619C31.5638 53.6527 30.7771 54.0557 30.1998 54.1303L30.201 54.1327ZM51.5171 23.4344C49.6972 22.8774 47.3607 22.9749 45.592 22.4107C45.1255 22.2615 44.7232 21.9355 44.4518 21.5253C44.2363 21.1993 43.3413 19.1134 43.2746 18.7573C43.1342 18.003 43.2842 17.5375 43.646 16.9083C44.5041 15.4155 46.011 13.9298 46.9334 12.4309L47.0287 12.0881L41.938 6.89854C41.7356 6.76742 41.6012 6.90094 41.4286 6.98275C39.9396 7.68888 38.2268 9.68459 36.7295 10.3895C36.0903 10.6903 35.6904 10.7468 35.0108 10.5567C34.1467 10.3149 32.2506 9.53783 31.8376 8.72824C31.3044 7.68166 31.1484 4.34586 30.8937 2.96246C30.7557 2.21903 30.8854 1.99408 30.0296 1.91709C28.6906 1.7968 24.8783 1.73424 23.6285 1.93032C23.4226 1.9628 23.1905 2.03137 23.1131 2.2479C22.5918 4.1185 22.6977 6.72531 22.055 8.49847C21.8991 8.92793 21.6027 9.3249 21.229 9.58354C20.885 9.82173 19.1163 10.5519 18.7057 10.6289C17.8689 10.7865 17.5047 10.5158 16.8346 10.1104C16.1014 9.66534 12.395 6.59299 12.0177 6.62667L6.90323 11.6526L6.76397 11.9425C6.79968 12.111 6.8949 12.2553 6.9794 12.4021C7.85661 13.907 9.86693 15.8931 10.4859 17.3751C10.5858 17.6157 10.7037 18.0704 10.7084 18.3242C10.7191 18.8283 9.96572 20.7109 9.66578 21.1656C9.30395 21.7118 8.78976 22.0161 8.17084 22.1725C7.36266 22.377 2.2113 22.9027 2.02919 23.1577L1.97682 30.5487L2.17797 30.8254L8.28867 31.8419C8.90164 32.0548 9.27419 32.3639 9.58841 32.9269C10.0645 33.7786 10.7001 35.4195 10.4597 36.3722C10.1407 37.6365 7.42694 40.2578 6.73898 41.6063C6.66161 41.7578 6.58067 41.8817 6.59972 42.0658C6.64852 42.535 11.031 46.4843 11.5856 47.2301L12.1724 47.2277L17.0096 43.7223C18.0177 43.1906 20.6577 44.2841 21.3718 45.007C21.7634 45.404 21.8693 45.7709 21.986 46.305C22.3609 48.012 22.3323 50.1184 22.7584 51.7652C22.7965 51.9132 22.8453 52.0528 22.9667 52.155L30.1427 52.2139C30.2427 52.2103 30.3129 52.1658 30.3831 52.0973C30.6616 51.8194 31.1342 47.0894 31.421 46.1859C31.6055 45.6061 31.8733 45.1995 32.3934 44.8891C32.7065 44.7027 34.5966 43.9051 34.9132 43.839C35.9463 43.6224 36.4379 43.9075 37.2365 44.4344C38.5934 45.3306 39.886 46.5396 41.2369 47.4719C41.575 47.6523 41.8059 47.431 42.063 47.2349C43.6067 46.0572 45.0838 43.8907 46.6192 42.6059L46.7466 42.0201L43.4175 37.3382C43.2032 36.8847 43.1128 36.5069 43.1782 36.0065C43.2437 35.5061 44.2471 33.0953 44.5518 32.7092C44.6696 32.5588 44.8267 32.4133 44.9862 32.3086C46.0646 31.5965 49.746 31.5074 51.2266 31.1778C51.3504 31.1502 51.4825 31.1273 51.5575 31.0082L51.5194 23.4356L51.5171 23.4344Z" fill="white"/>
<path d="M26.0271 11.6777C36.8416 11.057 44.7865 22.0388 41.1134 32.3494C37.1273 43.5405 22.6432 46.0571 15.0804 36.9699C6.98679 27.2452 13.5736 12.3923 26.0259 11.6777H26.0271ZM30.913 39.9689C38.4068 37.587 42.231 29.034 39.0781 21.6815C35.1634 12.5523 23.0598 10.6841 16.6218 18.2423C10.3647 25.5875 13.626 37.1876 22.7301 39.9689V33.3671C18.5369 31.049 17.599 25.1485 20.5984 21.4265C21.1899 20.6927 23.7918 18.2002 24.037 20.3414C24.1263 21.1185 23.8954 25.1689 24.0537 25.4263L26.9126 26.6233L29.4347 25.4504C29.6657 25.1039 29.3633 21.1991 29.4954 20.3511C29.7716 18.5839 31.6879 20.0768 32.3377 20.7011C36.0846 24.3052 35.2765 30.735 30.9118 33.4272V39.9689H30.913ZM22.2564 26.3466V22.4454C19.8485 24.9043 20.3008 29.188 22.911 31.3244C23.2324 31.5879 24.5095 32.2315 24.5095 32.5875V40.4489C25.9997 40.7388 27.528 40.7737 29.0158 40.4489V32.7066C29.0158 32.2074 30.0096 31.8152 30.3596 31.5458C32.8912 29.6006 33.6363 26.4224 32.1604 23.5221L31.3879 22.4442V26.1048C31.3879 26.2852 31.0808 26.6943 30.9035 26.8145C30.4786 27.1045 27.7279 28.3796 27.2411 28.5083C26.8983 28.5985 26.6282 28.5985 26.2842 28.5083C25.9235 28.4133 22.9479 27.0191 22.6456 26.8013C22.5504 26.7327 22.2707 26.4067 22.2564 26.3442V26.3466Z" fill="white"/>
</svg>
