<svg width="52" height="51" viewBox="0 0 52 51" fill="none" xmlns="http://www.w3.org/2000/svg">
<path d="M41.98 0C42.5433 0.230209 43.9164 0.0846883 44.1425 0.787244C44.2537 1.13196 44.2162 1.52678 43.9394 1.78442L38.6837 7.0017L40.075 11.1395L44.2416 12.5422C46.1901 10.7852 47.8981 8.75152 49.9385 7.10547C51.0869 6.79415 51.0518 7.96667 51.3141 8.71336V11.5856C51.0748 12.7844 50.7158 13.9402 50.1271 15.0185C48.3176 18.3356 44.4773 20.5196 40.6274 20.299C40.2454 20.2775 39.3618 20.0198 39.0729 20.151L34.6621 24.593C34.7092 24.853 36.6287 26.3369 36.7412 26.7066C37.0905 27.8577 35.1166 28.3432 36.0908 29.3797C37.2247 30.5856 37.9934 28.0414 39.0741 28.961L49.8588 39.6091C50.5719 40.4858 50.9998 41.5092 51.3129 42.5815V45.2558C50.1827 50.2309 44.1473 52.5211 40.0725 49.1681L29.231 38.4783C28.6218 37.4406 30.8701 36.7392 29.8028 35.686C28.8043 34.7007 28.1214 36.5281 27.2015 36.3241C26.7059 36.2144 25.0318 34.1664 24.871 34.1664L20.3599 38.6155C22.1694 47.9789 10.981 54.5548 3.5446 48.2771C-3.57871 42.263 0.758374 30.495 10.1227 30.3995C10.6933 30.3936 12.0326 30.7335 12.4327 30.5057L30.9958 12.1772C30.0312 7.05776 33.0266 1.86553 38.1457 0.425827L40.1741 0.00119279H41.98V0ZM41.5787 1.68422C36.3858 1.42658 32.1297 5.70394 32.5491 10.8413C32.6035 11.514 33.0423 12.3335 32.6482 12.9227L13.129 32.1828C12.4859 32.6217 10.9725 32.0897 10.1288 32.0933C1.95264 32.1327 -1.54676 42.7235 5.05919 47.4732C11.1611 51.8615 19.3868 47.1475 18.7969 39.7594C18.7425 39.0759 18.3122 38.3459 18.7534 37.7316L38.4274 18.4275C39.039 18.1817 40.527 18.6302 41.3321 18.6207C46.1406 18.5646 49.4623 14.6833 49.7004 10.1352C49.7089 9.96221 49.7113 9.90973 49.5578 9.80237L45.2956 14.0117C44.8895 14.3207 44.7021 14.4018 44.1848 14.3111C43.2637 14.1501 40.1052 13.0802 39.2191 12.6746C38.8335 12.4981 38.738 12.4217 38.5507 12.0472C38.1409 11.229 37.0808 8.12411 36.9092 7.23071C36.856 6.95518 36.8246 6.68322 36.885 6.40411L41.5811 1.68184L41.5787 1.68422ZM33.4001 25.7488L26.0266 32.9259L27.3937 34.2475C29.5453 32.84 32.1635 34.3584 31.7211 36.9623C31.6546 37.3547 31.1723 37.8664 31.2896 38.1217L41.1278 47.8274L48.3962 40.5645L38.57 30.8421C38.1603 30.9756 37.8158 31.2643 37.3685 31.3466C34.8555 31.8046 33.2091 29.0755 34.731 27.0824L33.4001 25.7488ZM49.4055 42.1855L42.6823 48.7196C46.8743 50.1629 50.7206 46.2887 49.4055 42.1855Z" fill="white"/>
<path d="M4.54992 0L10.9165 3.66903L11.9742 7.27962L22.7686 17.9241C22.835 17.9993 22.8085 18.0446 22.7686 18.1209C22.6187 18.4084 21.8765 18.8903 21.6589 19.2087L10.5176 8.22073C9.96644 7.17346 9.8927 5.86854 9.50106 4.74374L4.39641 1.90847L1.93776 4.40499L4.77476 9.38251C5.94122 9.74274 7.21285 9.85009 8.31284 10.3964L19.3562 21.2902C19.4227 21.3653 19.3961 21.4106 19.3562 21.487C19.2063 21.7744 18.4641 22.2563 18.2465 22.5748L7.35549 11.8373L3.81862 10.8711L0.111306 4.72585C-0.113526 4.11037 0.0581198 3.86226 0.43284 3.41377C1.1303 2.57882 2.69687 1.04966 3.54301 0.343524C3.70983 0.203968 3.90444 0.152678 4.04828 0H4.54992Z" fill="white"/>
<path d="M7.08886 45.4214C6.33459 44.0378 5.22977 42.6541 4.53231 41.2597C4.26275 40.7206 4.15517 40.7194 4.41143 40.1159C4.80428 39.1902 6.19679 37.0313 6.81568 36.1522C6.99216 35.9005 7.14205 35.5463 7.50468 35.5451C9.22356 35.6715 11.1407 35.3936 12.833 35.5451C13.0239 35.5618 13.1424 35.5594 13.3189 35.6596C13.5872 35.8111 15.5745 39.1485 15.867 39.6805C16.226 40.3341 16.4266 40.3723 16.0713 41.1261C15.6373 42.0458 14.2823 44.2787 13.6634 45.0874C13.4253 45.3987 13.2464 45.6039 12.8305 45.6516C11.7499 45.778 8.79686 45.7721 7.70776 45.6516C7.4793 45.6266 7.27743 45.5419 7.08886 45.4202V45.4214ZM8.23236 37.252L6.15932 40.55L8.11149 43.8696C8.18764 43.9722 8.29764 43.9602 8.40764 43.9733C8.81378 44.0223 12.2092 44.0222 12.3785 43.9197L14.3633 40.6359L12.4667 37.3939C12.3905 37.2424 12.2793 37.246 12.1331 37.2281C10.9449 37.0897 9.45443 37.3271 8.23236 37.2531V37.252Z" fill="white"/>
<path d="M34.5042 15.4504C34.7217 15.7701 35.4639 16.252 35.6138 16.5383C35.6537 16.6146 35.6803 16.6599 35.6138 16.7351L16.8416 35.252C16.624 34.9323 15.8818 34.4504 15.7319 34.1642C15.692 34.0878 15.6654 34.0425 15.7319 33.9674L34.5042 15.4504Z" fill="white"/>
<path d="M35.7085 34.0662L44.2872 42.5314L43.1848 43.6264L34.6001 35.3508C34.5336 35.2757 34.5602 35.2303 34.6001 35.154C34.75 34.8665 35.4921 34.3846 35.7097 34.0662H35.7085Z" fill="white"/>
</svg>
