<svg width="52" height="51" viewBox="0 0 52 51" fill="none" xmlns="http://www.w3.org/2000/svg">
<path d="M27.2172 0L30.1363 0.569719C36.6746 2.40604 41.0403 8.51526 40.8329 15.1688C43.5291 16.9339 44.4105 20.3878 42.7617 23.1703C41.3825 25.5 38.79 26.2681 36.1561 26.1053C35.3368 28.491 33.4651 30.368 31.3237 31.6703L31.2874 33.6541C31.8163 33.7202 32.3451 34.1831 32.8532 34.2543C34.2169 34.4578 36.1198 34.2136 37.6182 34.3612C45.2712 35.1293 51.5813 41.4674 51.9806 49.0518C52.0272 49.9013 52.105 50.8627 51.0214 50.9949L30.2608 50.944C29.5764 50.7406 29.3275 49.9114 29.7682 49.3621C29.846 49.2705 30.2452 49.0009 30.3126 49.0009H49.9533C49.7562 47.4952 49.4607 46.0557 48.854 44.6517C46.8164 39.9312 41.9373 36.4518 36.6538 36.3501L36.5346 37.0826C34.8858 39.158 33.5428 41.8489 31.8629 43.8531C31.4533 44.3414 31.1785 44.6721 30.4733 44.4533L26.0298 40.2466L21.8819 44.2244C21.3737 44.6314 20.7878 44.6415 20.3212 44.1634C18.9731 41.8845 16.9199 39.6819 15.634 37.4081C15.4318 37.0521 15.2503 36.813 15.3333 36.3603C9.78535 36.4569 4.6989 40.3025 2.84787 45.374C2.41751 46.5542 2.2153 47.775 2.03901 49.0111H21.6797C21.7108 49.0111 22.1256 49.2552 22.1826 49.3163C22.7581 49.9216 22.3433 50.9644 21.4774 51.0051H0.976093C0.452412 50.944 0.270938 50.7101 0.0116901 50.3031C0.0376149 49.8097 -0.0246046 49.301 0.0116901 48.8076C0.566481 41.3453 6.78325 35.1293 14.374 34.3662C15.8725 34.2136 17.7754 34.4629 19.139 34.2594C19.6471 34.1831 20.176 33.7253 20.7049 33.6592L20.6686 31.6753C18.5272 30.3731 16.6554 28.4961 15.8362 26.1104C13.2074 26.2732 10.6149 25.5102 9.23055 23.1753C7.58174 20.3929 8.46318 16.939 11.1594 15.1738C10.8223 7.52334 16.9821 0.579892 24.7803 0H27.2172ZM38.7848 14.3447C38.6811 8.94764 34.948 4.04907 29.6697 2.52304C21.4723 0.14243 13.4252 6.05835 13.2074 14.3447L15.1362 14.243C15.3955 6.77558 23.2559 1.90245 30.3282 4.86296C34.0873 6.43986 36.7886 10.199 36.856 14.243L38.7848 14.3447ZM34.8287 15.4384V13.4952C34.8287 11.6792 32.9466 8.96798 31.5259 7.86924C25.4699 3.17923 16.7125 7.71664 17.1584 15.1789C20.259 16.0539 23.7381 15.5859 26.5328 14.0242C27.1342 13.6885 27.9068 12.9204 28.586 12.9408C29.1512 12.956 30.043 13.7546 30.5978 14.0598C31.8577 14.7618 33.3666 15.3519 34.8287 15.4384ZM33.408 26.9904H29.5504C28.949 28.9641 26.8439 29.1625 25.0343 28.9794C21.4723 28.6284 21.4671 23.4246 24.941 23.0177C26.8646 22.7938 28.8453 23.0329 29.6178 25.0015C31.0489 24.8642 32.7807 25.1694 34.1754 25.0015C34.6524 24.9455 34.7561 23.9791 34.8184 23.5416C35.0983 21.6137 34.8546 19.4925 34.9169 17.5392C32.651 17.2035 30.4422 16.4557 28.5705 15.1484C25.2262 17.3154 21.0056 18.175 17.0702 17.2238C17.1376 20.8558 16.5154 24.2944 18.8124 27.4177C22.0996 31.8839 29.0319 32.2145 32.6977 28.0281C32.791 27.9213 33.5066 27.0667 33.4132 26.9853L33.408 26.9904ZM15.0325 16.237C12.3363 16.1454 10.2675 17.8342 10.4594 20.576C10.6201 22.86 12.803 24.2537 15.0325 24.1062V16.237ZM36.9597 24.1011C39.6507 24.213 41.7247 22.4937 41.5329 19.7621C41.3721 17.4883 39.1737 16.0946 36.9597 16.2319V24.1011ZM25.1588 25.0218C24.0595 25.2151 24.0181 26.8429 25.3402 26.9904C26.3617 27.1023 28.0416 27.1227 27.7046 25.6679C27.5127 24.8387 25.8173 24.9099 25.1639 25.0218H25.1588ZM29.2445 32.5706C27.0668 33.1098 24.9254 33.1098 22.7478 32.5706V34.2136L25.9469 37.3471L29.2445 34.1119V32.5706ZM17.8791 36.9503L21.2804 41.9303L24.4692 38.7816L21.2649 35.5718C20.1086 35.9635 19.0457 36.6146 17.8791 36.9503ZM30.7326 35.5718L27.4194 38.7917L30.7119 41.9303L34.1132 37.0978L30.7274 35.5718H30.7326Z" fill="black"/>
<path d="M25.7654 49.0212C27.212 48.7466 27.4454 50.8423 26.1388 50.9898C24.8321 51.1373 24.5729 49.2451 25.7654 49.0212Z" fill="black"/>
</svg>
