<svg width="22" height="22" viewBox="0 0 22 22" fill="none" xmlns="http://www.w3.org/2000/svg">
<path d="M4.65281 0.0119626C5.1586 0.0770445 5.64349 0.433055 6.01537 0.763637C6.8295 1.48816 7.90761 2.58808 8.63303 3.40786C10.3956 5.39954 8.87996 6.59127 7.44191 8.00971C7.33444 8.1153 7.06875 8.24374 7.07813 8.41313C7.08666 8.56053 7.50886 9.2523 7.61463 9.42384C8.53793 10.9276 10.0165 12.4732 11.4008 13.5529C12.0443 14.055 12.7066 14.4907 13.4427 14.845C14.6411 13.9166 15.5478 11.9926 17.3594 12.6072C17.64 12.7025 17.8968 12.8956 18.1249 13.0805C19.4171 14.8183 23.1982 16.654 21.0808 19.1641C20.5835 19.7538 19.2312 21.1735 18.6141 21.5308C16.17 22.9462 12.1343 20.9032 9.9764 19.5486C5.95396 17.0238 2.03003 12.5279 0.523324 7.94506C-0.120216 5.987 -0.398272 4.06816 1.05556 2.41913C1.69995 1.68814 3.14567 0.126179 4.09925 0.0119626C4.2289 -0.00355362 4.52402 -0.00441563 4.65238 0.0119626H4.65281ZM4.21611 1.14034C4.12228 1.15456 3.92995 1.23171 3.84167 1.27783C3.50263 1.45669 1.84324 3.15313 1.58821 3.51561C0.277252 5.37928 2.05733 9.08636 3.07061 10.8319C5.04217 14.227 8.07265 17.2388 11.4767 19.1512C13.1152 20.0714 16.6212 21.7528 18.3121 20.4085C18.6367 20.1507 18.9002 19.771 19.1864 19.4857C19.8338 18.84 21.1332 18.0034 20.3771 16.9539C19.3549 16.0669 18.4128 14.7558 17.3799 13.9197C17.0903 13.6852 16.8549 13.5852 16.4745 13.6507C15.8894 13.7516 14.6786 15.3532 14.1225 15.7889C13.7413 16.0876 13.4623 16.1066 13.0222 15.9135C10.6805 14.8855 7.57326 11.7836 6.37616 9.51392C6.0529 8.90103 5.64691 8.26228 6.18681 7.64421C6.66915 7.0921 8.03598 6.05466 8.24836 5.42755C8.43046 4.89009 8.13406 4.53882 7.80398 4.15953C7.13528 3.39062 6.01367 2.245 5.24944 1.58039C4.94878 1.3192 4.63916 1.07482 4.21611 1.1399V1.14034Z" fill="#FB1300"/>
<path d="M4.65281 0.0119626C5.1586 0.0770445 5.64349 0.433055 6.01537 0.763637C6.8295 1.48816 7.90761 2.58808 8.63303 3.40786C10.3956 5.39954 8.87996 6.59127 7.44191 8.00971C7.33444 8.1153 7.06875 8.24374 7.07813 8.41313C7.08666 8.56053 7.50886 9.2523 7.61463 9.42384C8.53793 10.9276 10.0165 12.4732 11.4008 13.5529C12.0443 14.055 12.7066 14.4907 13.4427 14.845C14.6411 13.9166 15.5478 11.9926 17.3594 12.6072C17.64 12.7025 17.8968 12.8956 18.1249 13.0805C19.4171 14.8183 23.1982 16.654 21.0808 19.1641C20.5835 19.7538 19.2312 21.1735 18.6141 21.5308C16.17 22.9462 12.1343 20.9032 9.9764 19.5486C5.95396 17.0238 2.03003 12.5279 0.523324 7.94506C-0.120216 5.987 -0.398272 4.06816 1.05556 2.41913C1.69995 1.68814 3.14567 0.126179 4.09925 0.0119626C4.2289 -0.00355362 4.52402 -0.00441563 4.65238 0.0119626H4.65281ZM4.21611 1.14034C4.12228 1.15456 3.92995 1.23171 3.84167 1.27783C3.50263 1.45669 1.84324 3.15313 1.58821 3.51561C0.277252 5.37928 2.05733 9.08636 3.07061 10.8319C5.04217 14.227 8.07265 17.2388 11.4767 19.1512C13.1152 20.0714 16.6212 21.7528 18.3121 20.4085C18.6367 20.1507 18.9002 19.771 19.1864 19.4857C19.8338 18.84 21.1332 18.0034 20.3771 16.9539C19.3549 16.0669 18.4128 14.7558 17.3799 13.9197C17.0903 13.6852 16.8549 13.5852 16.4745 13.6507C15.8894 13.7516 14.6786 15.3532 14.1225 15.7889C13.7413 16.0876 13.4623 16.1066 13.0222 15.9135C10.6805 14.8855 7.57326 11.7836 6.37616 9.51392C6.0529 8.90103 5.64691 8.26228 6.18681 7.64421C6.66915 7.0921 8.03598 6.05466 8.24836 5.42755C8.43046 4.89009 8.13406 4.53882 7.80398 4.15953C7.13528 3.39062 6.01367 2.245 5.24944 1.58039C4.94878 1.3192 4.63916 1.07482 4.21611 1.1399V1.14034Z" fill="black" fill-opacity="0.2"/>
</svg>
