<svg width="38" height="37" viewBox="0 0 38 37" fill="none" xmlns="http://www.w3.org/2000/svg">
<path d="M37.871 19.1529C37.9958 20.3204 37.9958 23.1857 37.871 24.3532C37.809 24.9347 37.43 25.8349 37.0737 26.3062C36.6675 26.8431 36.0911 27.192 35.548 27.5681C35.6206 29.9221 35.6297 32.0156 33.7643 33.6966C31.8936 35.3823 29.7385 35.1557 27.3776 35.1278C26.9828 36.0166 26.1741 36.8089 25.1726 36.9312C24.1711 37.0535 21.4078 37.0551 20.5727 36.577C18.7133 35.5129 18.8336 32.6107 20.7988 31.7248C21.7444 31.2981 25.1317 31.2913 26.0516 31.7731C26.6794 32.1016 27.0902 32.699 27.3784 33.3251C29.1825 33.2571 31.1137 33.68 32.5638 32.3441C33.9292 31.0859 33.762 29.5392 33.7219 27.8272C32.6273 27.7139 31.5834 26.7842 31.4707 25.6711C31.2188 23.1728 31.6409 20.2449 31.4896 17.7029C31.706 16.5882 32.6553 15.842 33.7325 15.6434C33.3157 9.3427 28.8156 3.82363 22.6914 2.27621C13.63 -0.0143342 4.88402 6.39889 4.20398 15.6426C5.25846 15.8299 6.3258 16.6456 6.45969 17.767C6.75092 20.2079 6.25999 23.1751 6.46726 25.6711C5.68055 29.1012 1.31663 28.0953 0.309808 25.2783C-0.0850558 24.172 -0.0207582 20.7758 0.063207 19.4882C0.169109 17.8569 1.008 16.7339 2.39003 15.9379C2.85751 5.55004 12.5301 -1.88801 22.7353 0.422931C29.9306 2.05267 35.287 8.54746 35.548 15.9379C36.7273 16.6033 37.722 17.758 37.871 19.1529ZM4.4831 25.8342C4.55194 25.7655 4.59884 25.6665 4.64044 25.5789L4.6586 17.9868C4.39763 17.3751 3.78339 17.4234 3.23195 17.6107C2.45281 17.875 1.93994 18.6876 1.87186 19.4897C1.77353 20.6399 1.76293 22.95 1.87564 24.0889C1.98457 25.1938 3.02241 26.2012 4.16767 26.0071C4.26827 25.9897 4.412 25.9067 4.48386 25.8342H4.4831ZM33.4541 25.8342C33.526 25.9067 33.6697 25.9897 33.7703 26.0071C34.9156 26.2012 35.9534 25.1938 36.0623 24.0889C36.175 22.9493 36.1645 20.6391 36.0661 19.4897C35.9973 18.6869 35.4844 17.8743 34.706 17.6107C34.2045 17.4408 33.3596 17.3577 33.2741 18.0578C33.4488 20.4065 33.0532 23.0648 33.2726 25.3765C33.29 25.5593 33.3195 25.6997 33.4549 25.8349L33.4541 25.8342ZM21.6581 33.3379C20.8245 33.6136 20.8737 34.939 21.7345 35.1134C22.174 35.2025 24.4827 35.198 24.9509 35.1255C25.8466 34.9873 25.957 33.6325 25.0909 33.3372H21.6581V33.3379Z" fill="#EC2024"/>
<path d="M13.1692 24.2785C12.0542 24.2445 10.9687 23.8012 10.235 22.9569C9.54965 22.1677 9.31364 21.2796 9.25086 20.2487C9.11773 18.0692 9.11092 14.8837 9.25464 12.7095C9.38475 10.7429 10.4302 9.28232 12.3984 8.84657C16.3841 8.86167 20.689 8.50673 24.6573 8.74915C27.0628 8.89641 28.522 10.2845 28.6824 12.7095C28.8261 14.8837 28.8193 18.0692 28.6862 20.2487C28.553 22.4313 27.2867 24.0776 25.0212 24.2679C23.3252 24.4107 21.4856 24.169 19.7745 24.2928L16.1443 27.8197C15.4159 28.3121 14.5195 28.2758 13.847 27.7079C12.8432 26.8598 13.2532 25.4362 13.1692 24.2785ZM14.9771 26.313C15.1088 26.3455 15.1277 26.2586 15.2033 26.2005C15.4514 26.0102 15.8576 25.6069 16.1073 25.372C17.0899 24.4492 17.9757 23.4206 18.987 22.5264C20.8744 22.3089 22.9243 22.6208 24.8071 22.472C26.177 22.364 26.7943 21.4842 26.879 20.1739C27.0356 17.749 26.7557 15.1533 26.8745 12.7102C26.7603 11.344 26.0015 10.6591 24.6573 10.5579C20.9886 10.283 16.984 10.7716 13.2797 10.5579C11.9748 10.656 11.1957 11.3101 11.0709 12.643C10.8273 15.2319 11.1556 18.2897 11.1571 20.9027C11.3689 21.7712 12.1216 22.3648 12.9907 22.4592C13.5316 22.5181 14.3553 22.3059 14.7532 22.7303C14.791 22.7711 14.9771 23.0868 14.9771 23.1094V26.3123V26.313Z" fill="#EC2024"/>
<path d="M19.9205 15.7129C21.1649 16.9582 19.2609 18.8628 18.0173 17.6175C16.7737 16.3722 18.6769 14.4675 19.9205 15.7129Z" fill="#EC2024"/>
<path d="M14.4349 15.3253C15.8744 15.1825 16.4894 17.1793 15.208 17.8386C13.2639 18.8385 12.3978 15.5277 14.4349 15.3253Z" fill="#EC2024"/>
<path d="M23.2458 15.3253C24.7141 15.178 25.2678 17.2949 23.916 17.8855C22.0105 18.7177 21.2064 15.53 23.2458 15.3253Z" fill="#EC2024"/>
</svg>
