<svg width="60" height="41" viewBox="0 0 60 41" fill="none" xmlns="http://www.w3.org/2000/svg">
<path d="M40.0444 5.61152C40.0546 5.80275 40.0904 5.81825 39.8908 5.81825C39.4404 5.81825 38.9388 5.53916 38.4884 5.61669C38.1198 5.67871 37.5926 6.087 37.178 6.01981C35.2689 5.27041 33.3597 4.52101 31.4608 3.74577C29.7359 3.04288 28.011 2.10742 26.2144 1.66812C22.6315 3.1049 19.023 4.58303 15.4504 6.07667C11.0485 7.91657 6.67228 9.82884 2.29092 11.7153C2.02476 12.1132 2.52636 12.4543 2.82835 12.6094C5.88916 14.1702 9.83035 15.5915 13.0601 16.9301C15.5169 17.943 17.9942 18.9612 20.4613 19.938C21.7102 20.4342 24.7659 21.8296 25.8868 21.995C26.327 22.057 26.6546 21.9071 27.0538 21.7624C29.352 20.9458 31.7116 19.6279 34.0046 18.8061C35.2382 18.3668 34.9464 18.8061 35.8626 18.9405C36.2926 19.0025 37.1729 18.7286 37.219 19.2506C36.9068 19.2403 36.5946 19.3798 36.313 19.509C33.0424 21.013 29.741 22.4343 26.3731 23.7212C25.7077 23.8039 25.0218 23.5093 24.3974 23.2871C19.7805 21.6384 15.2917 19.54 10.7261 17.7518C9.65632 17.3332 7.77274 16.8939 6.84631 16.3771C6.40612 16.129 6.06319 15.7827 5.50016 15.4984C4.2308 14.8679 1.9531 14.3252 0.939654 13.5913C0.0541674 12.9453 0.125825 11.0279 1.13927 10.4594C7.75739 7.4566 14.5342 4.74842 21.2137 2.01439C22.4319 1.51307 24.8273 0.184821 25.9892 0.0194359C26.7467 -0.089098 27.0948 0.283018 27.7243 0.48975C31.5222 1.74047 35.3149 3.56488 38.9337 5.15154C39.2971 5.31176 39.6451 5.55467 40.0444 5.60635V5.61152Z" fill="black"/>
<path d="M2.27551 28.7344C1.76879 29.4218 2.47513 29.5561 2.98697 29.8456C10.2091 32.5796 17.293 36.0423 24.5048 38.7505C25.6053 39.164 25.8765 39.3345 27.0691 38.9624C27.9546 38.6885 28.8094 38.1717 29.6744 37.8254C36.3744 35.1379 43.0847 32.4349 49.713 29.5665L50.2249 28.9153L44.8812 26.574C44.5229 26.1399 46.4628 25.7213 46.7392 25.6592C47.8294 26.1244 48.8992 26.7187 49.9996 27.158C50.1532 27.2201 50.3886 27.1839 50.6036 27.2614C51.2127 27.4836 51.8116 28.3209 51.8269 28.9773C51.8576 30.0574 51.3253 30.6466 50.4194 31.0963C48.5921 31.9956 46.5805 32.6571 44.697 33.4582C39.4045 35.7167 34.1172 37.9856 28.7429 40.0426C27.4223 40.5491 26.3628 41.3967 24.9092 40.792C18.6852 38.2078 12.41 35.5462 6.18087 32.9362C4.79889 32.3573 2.08613 31.6338 0.990791 30.7448C-0.17109 29.799 0.197436 28.0211 1.52311 27.4165L5.98125 25.499L7.04076 26.574L2.28063 28.7395L2.27551 28.7344Z" fill="black"/>
<path d="M6.94884 16.8371C7.09727 16.9973 7.38902 17.4934 7.26618 17.7002C5.46961 18.6408 3.45808 19.2403 1.75364 20.3308C1.69734 20.5014 1.73317 20.5892 1.84577 20.7185C2.03516 20.9459 3.47855 21.5919 3.84196 21.7521C9.81003 24.3931 16.1313 26.7343 22.2017 29.1634C23.2817 29.5976 25.2369 30.7139 26.3067 30.8225C26.5933 30.8483 27.4839 30.4762 27.8115 30.3521C35.1104 27.5923 42.138 24.0313 49.4317 21.2456C49.6774 21.0441 50.1227 20.9407 50.3223 20.7236C50.6038 20.4239 50.5629 19.7985 51.2129 19.8657C51.6429 20.5169 51.694 21.6591 51.1157 22.2379C50.8342 22.517 50.2097 22.6204 49.9026 22.946C43.0797 25.5818 36.4412 28.7396 29.6234 31.3703C28.6868 31.7321 26.7929 32.6107 25.8819 32.466C19.8217 30.1557 13.8741 27.5613 7.88551 25.096C5.73065 24.207 3.29941 23.5765 1.24692 22.4343C0.136223 21.8193 -0.518934 20.1758 0.525223 19.1886C1.82018 17.9689 4.67114 17.3901 6.24761 16.5115C6.46259 16.4339 6.79528 16.682 6.94372 16.8371H6.94884Z" fill="black"/>
<path d="M54.9594 5.81824H38.5292C36.6457 5.81824 35.1255 7.33254 35.1255 9.20346V16.1496C35.1255 18.0257 36.6457 19.54 38.5292 19.54H54.9594C56.8429 19.54 58.3682 18.0257 58.3682 16.1496V9.20346C58.3682 7.33254 56.8378 5.81824 54.9594 5.81824ZM53.0246 13.4208C51.4481 13.4208 50.1788 12.1546 50.1788 10.5937C50.1788 9.03291 51.4481 7.76668 53.0246 7.76668C54.6011 7.76668 55.8704 9.03291 55.8704 10.5937C55.8704 12.1546 54.5959 13.4208 53.0246 13.4208Z" stroke="black" stroke-width="2.47" stroke-miterlimit="10"/>
</svg>
