<svg width="40" height="32" viewBox="0 0 40 32" fill="none" xmlns="http://www.w3.org/2000/svg">
<path d="M24.5411 30.8004C23.4019 30.7862 22.2585 30.8201 21.1194 30.8004C21.1055 30.8004 20.9945 30.7161 20.8504 30.7128C19.581 30.6888 18.3073 30.7577 17.0379 30.7019C16.5906 30.5684 16.4924 30.087 16.6248 29.6614L30.2645 15.6739L16.6984 1.63282C16.5746 1.18641 16.6792 0.654663 17.1842 0.573697C19.2255 0.538685 21.2689 0.603239 23.3101 0.572603C23.9507 0.562756 24.5966 0.282656 25.1389 0.893186L39.1469 15.3139V15.8938L24.903 30.5608L24.5411 30.8015V30.8004Z" stroke="black" stroke-miterlimit="10"/>
<path d="M1.12489 0.505737L8.43157 0.564821L8.8159 0.660011L22.873 15.0304C23.189 15.3094 23.2083 15.8335 22.9125 16.1344L8.86715 30.5169L8.57036 30.7018L1.03201 30.7138C0.569739 30.6394 0.411734 30.1613 0.546252 29.7357L14.2756 15.6027L0.705325 1.71257C0.320988 1.24209 0.579348 0.65454 1.12489 0.505737Z" stroke="black" stroke-miterlimit="10"/>
</svg>
