<svg width="18" height="18" viewBox="0 0 18 18" fill="none" xmlns="http://www.w3.org/2000/svg">
<path d="M3.80721 0.00978853C4.22108 0.0630425 4.61785 0.354352 4.92215 0.624854C5.58832 1.2177 6.47049 2.11773 7.06408 2.78852C8.50633 4.41823 7.26612 5.39338 6.08942 6.55403C6.00149 6.64044 5.78408 6.74554 5.79176 6.88414C5.79874 7.00475 6.14421 7.5708 6.23075 7.71116C6.98626 8.94165 8.19611 10.2063 9.32884 11.0898C9.85542 11.5007 10.3974 11.8572 10.9997 12.1471C11.9803 11.3874 12.7221 9.81311 14.2045 10.316C14.4342 10.394 14.6442 10.552 14.8309 10.7033C15.8883 12.1252 18.9822 13.6273 17.2496 15.6813C16.8427 16.1637 15.7361 17.3254 15.2312 17.6178C13.2313 18.776 9.92905 17.1043 8.16331 15.9959C4.8719 13.9299 1.6611 10.2511 0.428216 6.50113C-0.0983677 4.89893 -0.325891 3.32882 0.86372 1.97948C1.391 1.38134 2.57398 0.103248 3.35426 0.00978853C3.46035 -0.00290779 3.70183 -0.00361314 3.80686 0.00978853H3.80721ZM3.44988 0.933093C3.37311 0.944731 3.21572 1.00786 3.14349 1.0456C2.86606 1.19196 1.50825 2.58009 1.29957 2.87669C0.226865 4.40166 1.68343 7.43502 2.51257 8.86335C4.12582 11.6414 6.60554 14.1059 9.39095 15.6707C10.7317 16.4237 13.6005 17.7994 14.9841 16.6994C15.2497 16.4885 15.4653 16.1778 15.6995 15.9444C16.2292 15.4161 17.2925 14.7315 16.6738 13.8728C15.8373 13.1469 15.0665 12.0741 14.2213 11.3899C13.9843 11.1981 13.7917 11.1162 13.4804 11.1698C13.0017 11.2524 12.011 12.5629 11.5559 12.9195C11.2439 13.1639 11.0157 13.1794 10.6556 13.0214C8.73944 12.1803 6.1969 9.64206 5.21737 7.78487C4.95286 7.28337 4.62064 6.7607 5.06243 6.25496C5.45711 5.80319 6.57553 4.9543 6.74931 4.44115C6.89832 4.00137 6.65579 3.71394 6.38569 3.40358C5.83852 2.77441 4.92075 1.837 4.29541 1.29317C4.04939 1.07945 3.79605 0.879486 3.44988 0.93274V0.933093Z" fill="white"/>
</svg>
