<svg width="43" height="31" viewBox="0 0 43 31" fill="none" xmlns="http://www.w3.org/2000/svg">
<path d="M0.00167644 11.1196C0.441741 9.35593 2.71164 8.75159 3.83569 10.2442C3.9346 10.3751 4.26821 10.9607 4.26821 11.0771V14.4252H6.44339V11.0771C6.44339 10.9258 6.85495 10.245 6.98571 10.1005C7.98487 8.99639 9.40565 9.57862 10.6705 9.42648C11.5926 9.31513 11.3403 8.58159 11.5414 7.93561C11.6797 7.49362 12.5582 6.54249 13.0108 6.54249H17.0267L17.1525 6.41499V4.33849H13.1785C13.1433 4.33849 12.6085 4.11409 12.5238 4.06905C10.8415 3.16212 11.1961 0.507625 13.0477 0.0528848C18.191 0.0188856 23.3612 -0.0661125 28.4919 0.0953839C30.2396 0.627472 30.5112 3.19441 28.8909 4.0682C28.8071 4.11324 28.2714 4.33764 28.2362 4.33764H24.2622V6.54164H27.6503C28.1206 6.54164 28.9093 7.36017 29.0929 7.79196C29.4802 8.70399 28.8758 10.6938 29.9135 10.8595C31.2899 11.0797 32.8087 10.3343 33.833 11.7197C34.0166 11.9679 34.3007 12.5629 34.3007 12.8561V16.6284H35.7232V15.3993C35.7232 14.9148 36.5539 14.0784 37.0032 13.8991C37.6813 13.6288 39.6628 13.6823 40.3703 13.9118C41.7123 14.347 42.6586 15.6084 42.833 17.0109C42.3678 21.469 44.9218 28.9845 37.7827 28.2306C36.8137 28.1286 35.8615 27.4427 35.7299 26.4116C35.6821 26.036 35.8414 25.5574 35.5975 25.2744H34.3007V28.3683C34.3007 29.2225 33.3334 30.2408 32.4944 30.353H16.6135C16.217 30.2757 15.8692 30.0615 15.5599 29.8107C14.2816 28.7746 13.1667 27.1528 11.8583 26.1023C10.4249 25.7801 8.22544 26.5485 7.06954 25.4444C6.87256 25.2557 6.44171 24.5561 6.44171 24.3003V20.2739H4.26653V23.622C4.26653 23.9748 3.63536 24.755 3.32521 24.9565C2.02597 25.7988 0.38139 25.0508 0 23.5795V11.1196H0.00167644ZM13.3629 1.4749C12.6035 1.75115 12.7401 2.89352 13.5959 2.89777L27.8196 2.89947C28.6017 2.84762 28.8104 1.93814 28.1734 1.51995L13.3629 1.47405V1.4749ZM22.8406 4.33849H18.5741V6.54249H22.8406V4.33849ZM27.6662 8.17955C27.5992 8.10561 27.4701 8.05546 27.3796 8.00616L13.4341 7.98831C12.7141 8.1243 12.922 8.81279 12.761 9.34063C12.1299 11.4137 10.0142 10.6827 8.49116 10.8629C8.23131 10.8935 8.05193 10.9862 7.92871 11.225L7.85998 23.8813C7.86333 24.3275 8.16341 24.5519 8.57498 24.5986C9.88847 24.7474 11.8004 24.2153 12.8876 25.0602C14.1064 26.0079 15.2648 27.7929 16.4811 28.7091C16.6018 28.8001 16.6973 28.9072 16.8641 28.9148L32.3821 28.8817C32.7886 28.7142 32.849 28.3522 32.8825 27.9476C32.6226 23.1919 33.2186 18.075 32.8825 13.3619C32.8531 12.9437 32.8037 12.4337 32.3175 12.3241C30.9169 12.007 28.9621 12.9488 28.077 11.1111C27.6604 10.2467 28.0837 8.64279 27.6654 8.17955H27.6662ZM1.61776 11.0618C1.48449 11.2097 1.43671 11.469 1.4191 11.6662C1.0922 15.2964 1.67308 19.4299 1.4233 23.1137C1.4233 24.0453 2.74098 24.1243 2.84743 23.2004V11.4996C2.84743 10.8816 1.99915 10.6394 1.61776 11.0618ZM37.6243 15.2063C37.3477 15.2692 37.1507 15.5412 37.1448 15.8217L37.1515 26.1601C37.2546 26.6768 37.6511 26.7635 38.1063 26.8035C39.5514 26.9293 41.1666 26.5646 41.3921 24.8715C41.7073 22.5026 41.2093 19.5361 41.4047 17.1044C41.2588 16.0997 40.4541 15.2922 39.4466 15.1885C39.0778 15.1511 37.9529 15.1315 37.6251 15.2055L37.6243 15.2063ZM6.44339 15.9509H4.26821V18.8332H6.44339V15.9509ZM35.724 18.0699H34.3016V23.8337H35.724V18.0699Z" fill="black"/>
</svg>
