<?xml version="1.0" encoding="UTF-8"?>
<svg xmlns="http://www.w3.org/2000/svg" xmlns:xlink="http://www.w3.org/1999/xlink" width="13px" height="23px" viewBox="0 0 13 22" version="1.1">
<g id="surface1">
<path style=" stroke:none;fill-rule:nonzero;fill:rgb(0%,0%,0%);fill-opacity:1;" d="M 8.152344 7.308594 L 12.109375 7.308594 C 12.128906 7.308594 12.398438 7.425781 12.425781 7.449219 C 12.632812 7.625 12.539062 7.90625 12.394531 8.089844 L 0.683594 21.707031 C 0.285156 21.878906 0.0351562 21.542969 0.136719 21.171875 L 4.109375 11.578125 L 0.265625 11.578125 C 0.15625 11.578125 -0.109375 11.117188 0.0507812 10.976562 C 2.078125 7.59375 3.800781 4.015625 5.832031 0.640625 C 5.914062 0.503906 6.132812 0.0820312 6.246094 0.03125 L 11.824219 0 C 12.234375 0.0742188 12.242188 0.480469 12.035156 0.773438 Z M 10.984375 0.847656 L 6.738281 0.847656 L 1.160156 10.792969 L 4.945312 10.792969 C 5 10.792969 5.28125 11.128906 5.183594 11.242188 L 2.074219 18.675781 L 2.058594 18.882812 L 11.214844 8.152344 L 7.316406 8.152344 C 7.125 8.152344 6.867188 7.738281 7.042969 7.546875 Z M 10.984375 0.847656 "/>
</g>
</svg>
