<svg width="33" height="33" viewBox="0 0 33 33" fill="none" xmlns="http://www.w3.org/2000/svg">
<path d="M9.15988 32.6957C9.06305 32.5585 8.97752 32.5149 8.95251 32.3261C8.90652 31.9782 8.90652 30.1291 8.9864 29.8401C8.9977 29.7989 9.01222 29.7594 9.04046 29.7263L9.97401 29.6424V13.5974C9.97401 12.5053 11.2327 11.2551 12.3325 11.2083C14.875 11.3253 17.6675 10.9879 20.1826 11.1865C21.5607 11.2954 22.5838 12.2971 22.7145 13.6741L22.7234 20.5516H23.9781C24.0305 20.5516 24.3371 20.6824 24.4219 20.7187C25.19 21.0472 25.4474 21.6857 25.5071 22.4823C25.6298 24.1208 25.3837 25.89 25.5362 27.5414C25.85 28.4462 27.2871 28.3485 27.4049 27.3711L27.4073 20.7962C27.0918 20.6606 26.7642 20.6896 26.4503 20.5202C25.1828 19.8373 25.7871 17.897 25.6265 16.7315C25.5458 16.4603 24.4057 15.6257 24.2121 15.2964C23.9652 14.8775 24.5243 14.5119 24.8915 14.821L28.1407 18.0826C28.215 18.1819 28.2093 18.2941 28.2206 18.4103C28.4853 21.2926 28.0157 24.5792 28.2174 27.5051C27.9592 29.468 24.9108 29.4503 24.6906 27.5051C24.5114 25.9255 24.8544 24.0215 24.6825 22.425C24.6591 22.2071 24.5857 21.8786 24.4509 21.7074C24.3775 21.6146 24.0015 21.3652 23.9111 21.3652H22.7242V29.6424L23.6578 29.7263C23.686 29.7586 23.7005 29.7989 23.7118 29.8401C23.7917 30.1291 23.7909 31.9782 23.7457 32.3261C23.7207 32.5141 23.6352 32.5585 23.5383 32.6957H9.15988ZM21.9093 29.6432V13.666C21.9093 12.9428 21.0322 12.0598 20.2979 12.0211C17.8095 12.1252 15.1154 11.8225 12.6496 12.0009C11.8 12.0622 10.7873 12.7289 10.7873 13.666V29.6432H21.9085H21.9093ZM27.4017 19.9414V18.483C27.0862 18.2239 26.8304 17.7888 26.452 17.6347V19.2965C26.452 19.6347 27.0797 19.977 27.4017 19.9414ZM22.9259 30.4567H9.77068V31.8813H22.9267V30.4567H22.9259Z" fill="black"/>
<path d="M0.00420329 14.5131C0.0130789 14.3792 -0.00870667 14.2387 0.00420329 14.1063C0.344703 10.6333 2.70642 6.58388 5.25775 4.26741C14.1632 -3.81762 28.5384 0.123601 32.0814 11.5607C32.2799 12.2007 32.7189 13.7286 32.6946 14.342C32.6777 14.7698 32.2283 14.9401 31.9515 14.6076C31.1801 9.12796 27.7558 4.40947 22.6999 2.15273C13.8703 -1.78769 3.45197 3.30854 1.14835 12.639C1.03055 13.116 0.934527 14.2169 0.767505 14.5648C0.60371 14.9054 0.168805 14.8134 0.00420329 14.5139V14.5131Z" fill="black"/>
<path d="M16.268 2.31764C22.447 2.27971 28.0604 6.40092 29.8606 12.2906C29.9969 12.7369 30.3907 14.088 30.3164 14.4779C30.2511 14.8169 29.7169 14.9016 29.5547 14.5651C28.8439 9.79329 25.5075 5.67289 20.9946 3.99728C13.544 1.22963 5.45912 5.54617 3.42903 13.1566C3.34027 13.4908 3.23054 14.5683 3.01591 14.7103C2.81338 14.8435 2.46159 14.7628 2.3922 14.5352C2.21791 13.9613 3.10144 11.4528 3.38465 10.8046C5.60113 5.73665 10.7102 2.35154 16.2688 2.31764H16.268Z" fill="black"/>
<path d="M16.2619 4.00874C16.5685 3.95305 16.7234 4.15968 16.7557 4.43814C16.7904 4.73516 16.8001 5.8603 16.7396 6.12101C16.6363 6.56654 16.0045 6.56654 15.9392 6.00074C15.9004 5.66982 15.8948 4.69319 15.9448 4.37518C15.973 4.19842 16.0763 4.04184 16.2619 4.00874Z" fill="black"/>
<path d="M5.8199 10.0466C5.96514 10.0208 6.01597 10.0636 6.13539 10.1112C6.31936 10.1838 7.42719 10.8303 7.53531 10.949C7.87178 11.317 7.54903 11.7666 7.12381 11.6358C7.00036 11.5979 5.78359 10.8836 5.6666 10.7827C5.37935 10.5349 5.44713 10.1112 5.8191 10.0458L5.8199 10.0466Z" fill="black"/>
<path d="M10.2266 5.63788C10.4412 5.59349 10.5179 5.63788 10.6518 5.79446C10.7535 5.91311 11.4248 7.05843 11.4805 7.20533C11.6491 7.65087 11.2199 7.9947 10.8487 7.7001C10.7277 7.60405 9.94098 6.26341 9.91597 6.11732C9.87804 5.89616 10.0015 5.68469 10.2258 5.63788H10.2266Z" fill="black"/>
<path d="M26.7064 10.0474C27.0082 9.99571 27.2414 10.2443 27.1994 10.5405C27.1526 10.8755 25.8576 11.3816 25.5719 11.6358C25.1637 11.7609 24.8401 11.3364 25.1241 10.9804C25.2048 10.8787 26.5878 10.0675 26.7064 10.0474Z" fill="black"/>
<path d="M22.2291 5.63755C22.5744 5.53747 22.8464 5.81835 22.7608 6.16945C22.7294 6.2994 21.9782 7.57305 21.8781 7.66426C21.5126 7.99761 21.0591 7.68121 21.1915 7.25262C21.2286 7.13155 21.8805 6.02498 21.9887 5.87485C22.0492 5.79091 22.1266 5.66742 22.2299 5.63755H22.2291Z" fill="black"/>
<path d="M13.2819 13.5148C15.2103 13.5931 17.3252 13.3445 19.2326 13.493C19.7821 13.5358 20.2767 13.7239 20.3509 14.3421C20.4574 15.2316 20.4365 17.4367 20.3525 18.3495C20.3082 18.8362 19.8983 19.1381 19.4343 19.1946C17.4639 19.063 15.2717 19.3689 13.3279 19.197C12.8712 19.1567 12.4888 18.9226 12.3516 18.4779C12.4597 17.1768 12.1943 15.6093 12.3459 14.3421C12.404 13.8554 12.8075 13.5358 13.2819 13.5148ZM13.2626 14.3098L13.1609 14.4115V18.2785L13.2626 18.3802H19.4335L19.5352 18.2785V14.4115L19.4335 14.3098H13.2626Z" fill="black"/>
</svg>
