<svg width="39" height="39" viewBox="0 0 39 39" fill="none" xmlns="http://www.w3.org/2000/svg">
<path d="M38.9978 38.6134C38.8284 38.8385 38.6681 39.0217 38.3537 38.998H0.644706C0.166981 39.0171 -0.164984 38.5608 0.0860886 38.1266C0.129588 38.0511 0.360056 37.8519 0.420344 37.8519H4.26657V24.8671C4.26657 24.7748 4.59548 24.3887 4.75803 24.4444C6.72769 24.6237 9.08732 24.2177 11.0089 24.4466C11.1821 24.4673 11.5027 24.6 11.5027 24.7908V37.8519H15.8442V21.9736C15.8442 21.7439 16.1166 21.3243 16.4104 21.3975L22.7345 21.4044C22.9459 21.412 23.1558 21.8141 23.1558 21.9736V37.8519H27.4973V15.0436C27.4973 14.7674 28.0002 14.6483 28.2223 14.6254C29.6287 14.4843 32.5134 14.5018 33.9367 14.6209C34.2183 14.6445 34.7334 14.7712 34.7334 15.1191V37.8519H38.5796C38.6887 37.8519 38.9177 38.1396 38.9986 38.2327V38.6134H38.9978ZM33.5902 15.767H28.6397V37.8519H33.5902V15.767ZM22.0126 22.5444H16.9858V37.8519H22.0126V22.5444ZM10.3595 25.5912H5.40898V37.8527H10.3595V25.5912Z" fill="black"/>
<path d="M36.3321 0.00228915C37.0807 0.235782 37.692 0.826383 37.7797 1.63903C37.9079 2.82481 37.898 5.62291 37.7782 6.81708C37.5554 9.04214 34.367 8.94599 34.1617 6.78046C32.7575 8.3615 31.2801 9.90057 29.6653 11.271C29.3142 11.5694 28.0207 12.691 27.704 12.8124C27.0019 13.081 26.6127 12.3988 27.0744 11.8784C27.5361 11.358 28.5282 10.746 29.0975 10.2455C30.3551 9.13981 31.6532 7.85712 32.7919 6.62785C33.1162 6.27761 34.2052 4.81561 34.5059 4.68665C35.6605 4.19143 35.2743 6.21199 35.3392 6.74383C35.4247 7.44507 36.4091 7.5374 36.5999 6.85753C36.5572 5.29022 36.7846 3.48256 36.6404 1.93967C36.5923 1.42843 36.3962 1.12016 35.8414 1.14076L30.9222 1.78706C30.5887 1.9473 30.4017 2.23268 30.4834 2.61039C30.7001 3.61075 32.8895 2.44557 33.4787 2.96903C33.703 3.16894 33.716 3.42838 33.5817 3.68477C33.3383 4.1487 32.147 5.41155 31.7265 5.86556C24.6652 13.4945 14.9245 18.4368 4.59997 19.866C4.08714 19.937 2.25713 19.995 1.98545 20.2216C1.54817 20.5863 1.78932 21.296 2.35252 21.3585C3.27363 21.4608 5.27382 21.0846 6.26285 20.919C12.8655 19.8133 19.2828 17.2136 24.8293 13.5151C25.2948 13.3137 25.8229 13.7379 25.6138 14.221C25.4512 14.5956 23.3846 15.8005 22.9039 16.082C17.5947 19.1892 10.9554 21.5386 4.82891 22.3032C4.05966 22.3993 2.53949 22.6221 1.84503 22.4138C0.696509 22.0697 0.264572 20.626 0.959792 19.6531C1.62907 18.7168 2.90961 18.9358 3.91543 18.8008C13.0365 17.573 21.7805 13.7273 28.5282 7.46491C29.6065 6.46456 30.694 5.32456 31.6105 4.18914C29.1372 4.61798 28.3565 1.16289 30.8321 0.630279C32.2828 0.318192 33.9701 0.32277 35.4491 0.0694375L35.5712 0H36.3328L36.3321 0.00228915Z" fill="black"/>
</svg>
