<svg width="25" height="25" viewBox="0 0 25 25" fill="none" xmlns="http://www.w3.org/2000/svg">
<path d="M16.2827 24.9521C13.8527 25.0215 11.2108 25.02 8.78026 24.9521C6.2809 24.8823 3.79325 24.6557 1.98344 22.7155C0.327453 20.9403 0.193646 18.9625 0.110627 16.658C0.00514368 13.7372 -0.0720152 10.4233 0.10672 7.51469C0.39924 2.75477 2.75845 0.379444 7.53595 0.0981561C10.3791 -0.069347 13.548 0.00878854 16.4024 0.102063C16.9996 0.121597 17.6101 0.0962027 18.2063 0.148944C22.5922 0.536692 24.7707 3.28316 24.9563 7.56303C25.0955 10.769 24.8484 14.0751 24.9538 17.2914C24.8806 19.5583 24.3078 21.6773 22.5438 23.2024C20.7824 24.7255 18.5023 24.8886 16.2823 24.9521H16.2827ZM8.13711 2.35139C4.0721 2.50815 2.50792 3.87552 2.34775 8.00108C2.22957 11.0362 2.24226 14.2651 2.39805 17.2929C2.58752 20.9726 3.95294 22.4386 7.68245 22.6686C10.4533 22.8395 13.5705 22.7575 16.354 22.6647C18.3177 22.5993 20.1509 22.6579 21.5457 21.0385C22.7602 19.6291 22.6581 17.8642 22.7118 16.1233C22.7953 13.4115 22.8671 10.4643 22.7133 7.76082C22.4804 3.66309 20.7711 2.47201 16.7965 2.33576C14.0315 2.24102 10.9012 2.24542 8.13711 2.35188V2.35139Z" fill="#D9D9D9"/>
<path d="M11.7911 6.14545C18.1865 5.57946 21.4682 13.3007 16.6467 17.4126C12.7771 20.7129 6.69325 18.2213 6.15021 13.2065C5.78199 9.80659 8.32384 6.45213 11.7911 6.14545ZM12.0343 8.38208C9.15403 8.66142 7.52051 11.9031 8.85223 14.4478C10.1952 17.0131 13.8251 17.4219 15.6964 15.1994C18.1372 12.3011 15.818 8.01533 12.0338 8.38208H12.0343Z" fill="#D9D9D9"/>
<path d="M18.852 4.39124C20.9944 4.03035 21.3162 7.07617 19.4126 7.33353C17.4075 7.60457 17.1247 4.68229 18.852 4.39124Z" fill="#D9D9D9"/>
</svg>
