<svg width="58" height="34" viewBox="0 0 58 34" fill="none" xmlns="http://www.w3.org/2000/svg">
<path d="M0 0.96336C0.269777 0.597092 0.555422 0.320705 1.0587 0.41171C3.42661 1.27008 6.81469 1.4858 9.04771 2.47562C10.697 3.20591 11.1753 5.49565 12.225 6.82815L21.7136 9.63359C25.4927 6.68546 32.236 3.56207 36.9911 5.60688C38.7175 6.34841 39.9655 7.85505 39.707 9.80099C41.1466 9.66729 42.8956 9.97626 44.2966 9.80774C44.4553 9.78864 44.495 9.79538 44.6276 9.68752C44.7523 9.5864 45.8779 7.991 45.8155 7.90336C45.3225 7.58428 44.6661 7.03937 44.232 6.61468C43.2731 5.67879 43.1008 5.50689 42.8922 4.13619C42.7154 2.97559 42.5759 1.90263 43.3286 0.908308C44.4837 -0.61519 45.2567 0.0701592 46.5546 0.849884C48.9168 2.26777 51.5545 4.72604 53.2151 6.90455C54.0154 7.95505 54.6354 8.72129 54.1287 10.1347C53.9417 10.6582 51.805 13.2379 51.3199 13.6771C50.1592 14.7276 47.6575 14.3636 48.5926 12.9379C49.0438 12.2492 49.6831 12.657 50.0662 12.3829C50.5831 11.4604 51.907 10.5043 52.3604 9.61898C52.4783 9.38754 52.5282 9.25609 52.4704 8.98869C52.4126 8.72129 51.2315 7.31801 50.964 7.00342C49.7126 5.5361 48.0213 3.97103 46.4163 2.88683C45.9482 2.57 45.3349 2.10149 44.7976 2.01947C44.3771 2.22845 44.6548 4.26315 44.8622 4.64739C45.2544 5.37544 47.0533 6.51356 47.6734 7.23711C47.9817 7.59664 48.052 8.03706 47.7822 8.44715L45.1366 11.9829C45.8087 11.9885 46.5863 11.6604 46.8618 12.5199C47.2993 13.8816 44.7466 13.8693 43.8307 14.1603C40.148 15.3276 37.2586 19.533 36.9855 23.2754C36.9004 24.4394 37.2643 26.2763 36.9299 27.2471C36.5989 28.2077 35.6003 28.9896 34.5609 29.0458C31.5049 28.5223 27.8187 28.7526 24.8398 28.1335C24.0339 27.9661 23.4127 27.5246 22.9797 26.8415L18.7279 17.287L6.04843 11.7031L0 1.6341V0.96336ZM43.103 11.5896H39.087C36.7916 11.5896 33.5158 13.8198 32.0717 15.5029C31.4856 16.186 30.5199 18.4488 29.468 17.5196C28.7029 16.8444 29.8001 15.4658 30.2728 14.8422C32.1306 12.3941 34.8737 10.6875 37.8843 10.0077C38.0725 8.73365 37.72 8.0438 36.6171 7.43148C33.6767 5.799 29.0248 7.40227 26.2443 8.846C25.9121 9.01902 23.9591 10.1302 23.8718 10.3043C23.7675 10.5111 24.035 10.4695 24.1212 10.4998C24.6528 10.6908 26.3633 11.0829 26.6376 11.3706C27.2678 12.0301 26.7135 12.9446 25.8645 12.9278L11.3828 8.4449C10.4759 8.02695 9.73689 6.02146 9.18374 5.13725C8.7666 4.46988 8.7802 4.26427 7.96974 3.98901C6.39189 3.45421 4.46038 3.18906 2.82925 2.75313L7.24656 10.2976C10.9498 12.1761 15.1642 13.4255 18.8572 15.2613C20.053 15.8557 20.1494 16.0624 20.724 17.2185C22.1081 20.0048 23.1838 23.0563 24.527 25.8741C24.7798 26.3966 25.4599 26.3954 25.9654 26.4651C28.7074 26.8403 31.5854 26.8471 34.3353 27.2594C35.81 27.2223 35.0755 25.3135 35.0664 24.4012C35.0154 19.515 37.6338 14.7535 42.2586 12.8233L43.1042 11.5896H43.103Z" fill="black"/>
<path d="M11.4256 33.9612C10.9087 34.0129 9.90555 34.0129 9.3898 33.9612C5.80449 33.6017 2.55924 30.7479 1.6649 27.3369C-0.49785 19.0846 8.98173 12.7603 15.8758 17.8723C22.3697 22.6878 19.4123 33.1613 11.4267 33.9612H11.4256ZM9.5927 17.887C0.384025 18.8161 1.49374 32.8916 11.0289 32.1703C20.4234 31.4591 19.4282 16.8949 9.5927 17.887Z" fill="black"/>
<path d="M49.8903 33.9611C49.3734 34.0128 48.3703 34.0128 47.8545 33.9611C42.4069 33.4151 38.8034 27.9536 40.1036 22.7742C41.9138 15.569 51.5849 13.6635 56.0929 19.6058C60.2404 25.0729 56.8161 33.2668 49.8903 33.96V33.9611ZM48.0574 17.8869C38.8488 18.816 39.9585 32.8915 49.4936 32.1702C58.8882 31.459 57.8929 16.8948 48.0574 17.8869Z" fill="black"/>
<path d="M25.9885 20.1136C26.1823 20.0709 26.3251 20.0912 26.5122 20.1024C27.3952 20.1563 31.3001 20.7608 32.0176 21.0394C32.9743 21.4102 32.6671 22.8404 31.6254 22.7786C30.026 22.2865 27.3748 22.3955 25.9046 21.8259C25.0839 21.5079 25.1769 20.2911 25.9873 20.1136H25.9885Z" fill="black"/>
<path d="M9.8173 20.5699C16.0176 19.8587 16.7 29.048 10.8023 29.485C4.86044 29.9254 4.1656 21.2181 9.8173 20.5699ZM9.92612 22.3551C6.58225 22.8798 7.21815 28.1312 10.7944 27.6863C14.2663 27.256 13.6202 21.7754 9.92612 22.3551Z" fill="black"/>
<path d="M48.2821 20.5699C54.4825 19.8587 55.1648 29.048 49.2672 29.485C43.3253 29.9254 42.6304 21.2181 48.2821 20.5699ZM48.391 22.3551C45.0471 22.8798 45.683 28.1312 49.2592 27.6863C52.7312 27.256 52.0851 21.7754 48.391 22.3551Z" fill="black"/>
</svg>
