<svg width="41" height="49" viewBox="0 0 41 49" fill="none" xmlns="http://www.w3.org/2000/svg">
<path d="M20.8813 0C21.743 0.355745 22.3124 1.13941 23.0254 1.72201C27.1957 5.10932 31.6481 6.69213 37.0135 7.08396C38.3626 7.18192 40.6555 6.67666 40.8658 8.66162C40.9786 9.73401 40.9427 11.3529 40.9632 12.4872C41.2659 27.1758 39.8707 39.9569 25.4824 47.0666C24.554 47.5255 21.3019 49.0206 20.4504 49C19.5989 48.9794 16.6033 47.5976 15.7056 47.1594C1.16866 40.0961 -0.272727 27.2635 0.0350428 12.482C0.0606902 11.3477 0.0196543 9.72885 0.132503 8.65646C0.342812 6.67151 2.63569 7.17677 3.98475 7.07881C8.97574 6.71791 13.5666 5.23306 17.4958 2.10354C18.373 1.40751 19.1167 0.484638 20.117 0H20.8762L20.8813 0ZM37.4393 10.528C32.002 10.2908 26.9751 8.81113 22.5279 5.66614C22.2047 5.43929 20.6453 4.11942 20.4709 4.13489C20.3376 4.1452 18.8295 5.41867 18.5371 5.63005C14.0693 8.79566 9.03217 10.2908 3.56926 10.528C3.2102 21.4942 2.83574 33.5689 12.2381 40.9932C14.6849 42.9266 17.5984 44.4217 20.5427 45.4271C27.7856 42.9317 33.5922 37.9822 35.9517 30.5064C37.665 25.0878 37.8445 17.5037 37.547 11.8169C37.5265 11.3993 37.3726 10.9714 37.4495 10.528H37.4393Z" fill="black"/>
<path d="M27.134 18.1069C29.0422 17.7769 29.9398 19.7464 28.6831 21.1023C25.5233 23.8555 22.6765 27.6914 19.5013 30.3362C18.7729 30.9446 17.9676 31.1972 17.1212 30.6198L11.9148 25.33C11.1249 23.608 12.9817 21.9994 14.5052 23.2059C15.7619 24.2009 16.8442 25.8353 18.1574 26.7891L26.4928 18.4214C26.6621 18.2667 26.9134 18.1481 27.1391 18.112L27.134 18.1069Z" fill="black"/>
</svg>
