<svg width="52" height="42" viewBox="0 0 52 42" fill="none" xmlns="http://www.w3.org/2000/svg">
<path d="M6.34619 21.6016C6.46892 21.1979 7.52743 21.6533 7.82402 21.7051L7.92629 21.9225V38.6707C8.18708 40.0319 9.16377 40.3579 10.3961 40.4304H45.0765C46.3753 40.3321 47.4798 39.9801 47.7611 38.5517C47.7355 32.4393 47.8122 26.3217 47.7713 20.2093C47.7713 19.8574 47.5259 18.7809 47.8736 18.6101C48.7224 18.4445 49.2645 19.3605 49.3463 20.1058V38.9864C49.2031 40.5443 47.5259 41.9003 46.0327 41.9158C34.3533 41.7036 22.5767 42.1849 10.9382 41.9055C9.46036 41.8692 7.95186 42.0659 6.93937 40.7254C6.84732 40.6012 6.35131 39.7783 6.35131 39.7213V21.5912L6.34619 21.6016Z" fill="black"/>
<path d="M17.6674 15.748C17.4271 15.5307 16.3277 14.5214 16.2714 14.3299C16.1487 13.9107 16.5169 13.2379 16.568 12.7514C16.9617 8.81272 14.4919 4.56873 10.4828 3.8752C9.72603 3.74581 8.21752 3.67335 7.50162 3.8959C7.3789 3.93213 7.1539 4.06152 7.18969 4.22197C7.47094 4.40829 7.72662 4.44969 8.02321 4.66189C8.60104 5.07076 9.61865 6.01272 10.1607 6.52511C10.8459 7.17206 11.6743 8.04156 11.8175 9.0301C12.2624 12.0526 10.7232 14.2109 7.66014 14.4075C4.80165 14.5939 3.75337 11.6955 1.6568 10.3551C1.43692 10.3343 1.51873 10.3654 1.49828 10.5155C1.4318 10.9813 1.54942 12.4563 1.63123 12.9429C1.98918 15.0648 4.71983 18.165 6.76527 18.7292C8.40161 19.1795 10.1147 18.724 11.5414 19.0138C12.2317 19.1536 14.7067 21.6379 15.4123 22.2434C17.0998 23.6978 18.8487 25.1003 20.4748 26.6116C20.8532 26.9636 22.4691 28.4179 22.5611 28.775C22.7196 29.4116 22.2134 29.7946 21.6049 29.629C21.4106 29.5772 19.2577 27.6778 18.8896 27.3621C16.4606 25.2763 14.1339 23.0715 11.7152 20.9702C11.1169 20.6183 8.80047 20.5458 7.97207 20.4941C4.41302 20.256 1.3193 17.5181 0.347723 14.0246C-0.0204543 12.6996 -0.306815 9.2837 0.634084 8.21235C1.28862 7.46707 1.42158 8.12954 1.81532 8.48666C2.4852 9.08185 3.25224 9.58906 3.92723 10.1894C4.64313 10.826 6.15675 12.5754 6.93402 12.7979C8.85161 13.3465 10.9022 11.2504 10.4061 9.2837C10.0584 7.90182 6.44823 6.12141 5.50221 4.75505C5.03688 4.0874 5.2721 3.69923 5.28744 2.95912C5.29767 2.91254 5.80391 2.63823 5.90107 2.59683C6.9289 2.1776 9.28115 2.08962 10.3908 2.25524C15.6015 3.03675 18.9714 8.30551 17.8464 13.4759C18.4958 14.1643 19.1401 14.8785 19.8305 15.5255C20.0197 15.7066 20.2702 15.7636 20.4697 15.9447C20.7202 16.1724 21.4208 16.8556 21.4975 17.1454C21.7225 18.0046 20.8788 18.1599 20.2344 17.8907C19.9174 17.7562 18.0663 16.1051 17.6674 15.7429V15.748Z" fill="black"/>
<path d="M33.3253 7.90694C33.852 7.83448 34.1793 7.34798 34.6191 7.1306C34.9003 6.99604 35.335 7.09437 35.4884 6.72173C35.5957 6.46295 35.2531 5.14835 35.3503 4.5635C35.4679 3.87515 36.3577 2.68476 37.0685 2.5709C37.7792 2.45704 39.0218 2.7831 39.5332 2.50362C39.9576 2.27071 39.8554 1.89289 40.0241 1.61341C40.6786 0.531712 41.2002 -0.0531311 42.54 0.00380053C43.7212 0.0555565 44.2275 0.588643 44.8155 1.54613C45.015 1.86702 44.9792 2.30694 45.4138 2.54502C46.1502 2.93837 47.3058 1.86702 48.5536 2.67441C49.341 3.18162 49.9342 3.93208 50.0518 4.88957C50.1183 5.44853 49.9087 6.17312 49.9956 6.54058C50.149 7.15648 51.2944 7.30657 51.6422 7.86036C52.128 8.62635 52.087 10.2256 51.5961 10.9864C51.274 11.4833 50.016 12.1095 49.8831 12.5598C49.7041 13.1654 50.2922 13.5276 50.2615 14.0038C50.2257 14.5421 49.6581 16.1569 49.1825 16.4363C49.0854 16.4933 47.3825 17.0729 47.2803 17.0833C46.9581 17.104 46.7945 16.897 46.6309 16.8814C46.4416 16.8659 46.3036 17.0729 46.1195 17.0678C45.9252 17.0626 45.7615 16.7469 45.3985 16.8711C45.153 16.9591 44.8667 17.8027 44.6775 18.0666C43.8491 19.2415 41.594 19.3191 40.6326 18.2478C40.2696 17.8441 40.2593 17.2386 39.8451 16.9073C39.5895 16.7934 39.1241 17.1402 38.7406 17.1764C37.6923 17.2851 36.4599 16.6848 35.8412 15.8411C35.1202 14.8578 35.4628 13.6933 35.5548 12.6167C34.8236 12.0474 33.7139 11.6334 33.3611 10.6707C32.9827 9.64077 33.489 8.8696 33.31 7.90177L33.3253 7.90694ZM43.307 1.85149C43.0769 1.65999 42.2434 1.65482 41.9673 1.76868C41.6195 1.91877 41.1389 2.96424 40.8576 3.31619C40.2031 4.14428 39.6304 4.5221 38.5361 4.38236C38.0349 4.32025 37.9173 3.94761 37.3804 4.38236C36.4344 5.13282 37.7588 7.39456 36.2094 8.31581C35.5906 8.68328 34.7929 8.52801 34.6906 9.55796C34.573 10.7483 35.9281 10.6397 36.6287 11.121C37.1503 11.4781 37.2832 12.389 37.2219 12.9739C37.181 13.3776 36.8026 14.0711 36.8281 14.3454C36.869 14.7646 37.5747 15.5824 38.0145 15.5824L39.5076 14.8681C40.0139 15.013 40.8985 15.2511 41.2309 15.6703C41.6502 16.1931 41.5122 17.2955 42.3303 17.4093C44.1047 17.6578 43.3786 15.9757 44.2479 15.3909C44.4525 15.2563 45.2706 14.9768 45.5161 14.9561C46.5286 14.8837 47.2803 16.1931 48.2877 15.2097C49.295 14.2264 47.7814 13.036 48.1291 11.8508C48.4257 10.8363 49.5558 10.9295 50.0365 10.2618C51.1359 8.72469 49.07 8.53837 48.5484 7.91729C48.3286 7.65851 48.0575 6.96498 48.124 6.62857C48.303 5.67108 49.1876 5.41748 48.0882 4.33578C47.1933 3.45075 46.5848 4.69807 45.9354 4.61008C45.332 4.25814 44.2479 3.99936 43.8849 3.36794C43.6445 2.94872 43.6701 2.16203 43.3121 1.86702L43.307 1.85149Z" fill="black"/>
<path d="M19.728 6.83044H31.0597C31.2234 6.83044 31.4381 7.26002 31.4126 7.49292C31.3512 7.9846 31.1364 8.27961 30.6455 8.32619C27.4956 8.63673 23.8342 8.08294 20.6331 8.31584C20.0348 8.22268 19.7331 7.37388 19.7331 6.83044H19.728Z" fill="black"/>
<path d="M35.2887 32.5636C35.4421 32.548 35.6876 32.6464 35.9023 32.6464C38.3978 32.6257 40.8881 32.6464 43.3835 32.6464C44.3602 32.9 44.2528 33.961 43.2915 34.1369H35.2785C34.5114 33.9144 34.4961 32.6515 35.2887 32.5636Z" fill="black"/>
<path d="M43.3067 25.2089C44.1096 25.2296 44.5442 26.3527 43.5982 26.6684H35.171C34.496 26.2854 34.4602 25.3901 35.3807 25.2814C37.4415 25.0381 40.5965 25.2607 42.7647 25.2917C42.9641 25.2917 43.1635 25.2089 43.3067 25.2141V25.2089Z" fill="black"/>
<path d="M42.3658 5.90399C47.8578 5.44336 47.4794 13.9831 42.0232 13.1188C37.9988 12.4822 37.8914 6.28181 42.3658 5.90399ZM41.0516 7.93282C40.3562 8.59013 40.2743 10.2049 40.9135 10.9398C41.9056 12.0837 43.7567 11.9698 44.5851 10.7069C45.6743 9.04558 44.0328 6.86665 42.2277 7.35833C42.0027 7.42044 41.205 7.78791 41.0516 7.92765V7.93282Z" fill="black"/>
</svg>
