<svg width="45" height="44" viewBox="0 0 45 44" fill="none" xmlns="http://www.w3.org/2000/svg">
<path d="M36.111 0.00517282C36.5932 0.206913 37.77 0.0775923 37.967 0.687985C38.0603 0.988009 38.0292 1.32941 37.7908 1.55185L33.2855 6.07289L34.4779 9.66283L38.05 10.8784C39.7194 9.35763 41.1865 7.5937 42.9337 6.166C43.9187 5.89701 43.8876 6.91089 44.1157 7.55749V10.0456C43.9084 11.0854 43.6025 12.0889 43.0996 13.02C41.5494 15.8961 38.2574 17.7893 34.9549 17.5979C34.6283 17.5772 33.8714 17.3548 33.6225 17.4686L29.8379 21.3224C29.8794 21.55 31.5228 22.8328 31.6213 23.1535C31.922 24.1519 30.2267 24.5709 31.0614 25.471C32.0361 26.5159 32.6945 24.3123 33.6173 25.1089L42.8663 34.3423C43.478 35.1028 43.8461 35.9873 44.1105 36.9184V39.2358C43.1411 43.55 37.967 45.5363 34.4727 42.6292L25.1771 33.3595C24.6535 32.4594 26.5821 31.849 25.6696 30.9386C24.8142 30.0851 24.2284 31.668 23.4403 31.4921C23.0152 31.399 21.5791 29.6196 21.4443 29.6196L17.5768 33.4785C19.1269 41.5946 9.53578 47.2951 3.15897 41.8533C-3.21784 36.4115 0.768961 26.4383 8.7996 26.3555C9.28693 26.3555 10.4379 26.6452 10.78 26.4486L26.6961 10.5577C25.8718 6.11945 28.4381 1.61909 32.8241 0.36727L34.5661 0H36.1162L36.111 0.00517282ZM35.7688 1.46391C31.3154 1.24148 27.6656 4.95039 28.0285 9.40419C28.0752 9.98871 28.4537 10.6974 28.1115 11.2095L11.3711 27.9074C10.8215 28.2901 9.52023 27.8246 8.7996 27.8298C1.79029 27.866 -1.21148 37.0477 4.44988 41.1653C9.68094 44.9673 16.7369 40.8808 16.2288 34.4768C16.1822 33.882 15.8141 33.2509 16.1925 32.7181L33.0678 15.984C33.5914 15.7719 34.8668 16.1599 35.5563 16.1495C39.6779 16.103 42.5293 12.7355 42.7315 8.79379C42.7367 8.64378 42.7419 8.59723 42.6071 8.50412L38.9521 12.151C38.6047 12.4199 38.444 12.4872 37.9981 12.4096C37.2101 12.2699 34.4987 11.344 33.7417 10.9922C33.4099 10.8371 33.327 10.775 33.1663 10.4491C32.8137 9.74042 31.9065 7.04538 31.7561 6.27463C31.7095 6.03668 31.6835 5.79873 31.7354 5.55561L35.7637 1.45874L35.7688 1.46391ZM28.7544 22.3311L22.4294 28.554L23.6011 29.7023C25.4467 28.4815 27.6915 29.8006 27.3131 32.056C27.2561 32.3974 26.8413 32.8422 26.945 33.0595L35.38 41.4757L41.6117 35.1803L33.187 26.7486C32.8345 26.8625 32.539 27.1159 32.1553 27.1832C29.9986 27.5815 28.5884 25.2123 29.8949 23.4846L28.7544 22.3259V22.3311ZM42.4775 36.5822L36.7124 42.2464C40.3052 43.4982 43.6077 40.1411 42.4775 36.5822Z" fill="black"/>
<path d="M4.01443 0.00512695L9.47361 3.18641L10.3809 6.31597L19.635 15.5443C19.6921 15.6115 19.6713 15.6477 19.635 15.715C19.5054 15.9633 18.8677 16.3823 18.6811 16.6564L9.13662 7.13327C8.66484 6.22286 8.60263 5.09518 8.26564 4.11752L3.88482 1.66043L1.77996 3.82267L4.21144 8.1368C5.21203 8.44717 6.30075 8.54028 7.24431 9.01618L16.7162 18.4617C16.7732 18.529 16.7525 18.5652 16.7162 18.6324C16.5866 18.8807 15.9489 19.2997 15.7623 19.5739L6.41999 10.268L3.38712 9.43L0.209084 4.102C0.0172614 3.5692 0.162425 3.35194 0.483857 2.96398C1.08525 2.23978 2.42801 0.915543 3.15382 0.30515C3.29899 0.186176 3.46489 0.13962 3.58931 0.00512695H4.01962H4.01443Z" fill="black"/>
<path d="M6.19196 39.3858C5.54391 38.1857 4.60035 36.9856 3.99896 35.7804C3.76566 35.3148 3.67753 35.3096 3.89527 34.7872C4.23226 33.9854 5.42467 32.1128 5.95866 31.3524C6.10901 31.1352 6.23862 30.8248 6.54968 30.8248C8.02205 30.9334 9.66551 30.6955 11.1171 30.8248C11.283 30.8403 11.3815 30.8351 11.5319 30.9231C11.76 31.0524 13.4657 33.9492 13.7145 34.4096C14.0204 34.9734 14.1967 35.0096 13.8908 35.6614C13.5175 36.458 12.3562 38.3926 11.8274 39.0961C11.6252 39.3651 11.4697 39.5462 11.112 39.5876C10.1839 39.6962 7.65396 39.691 6.72077 39.5876C6.52376 39.5669 6.35268 39.4944 6.19196 39.3858ZM7.17181 32.3042L5.39356 35.1648L7.06812 38.0409C7.13552 38.1288 7.22884 38.1185 7.32216 38.1288C7.66951 38.1702 10.5831 38.1702 10.7283 38.0823L12.4288 35.2372L10.8009 32.4284C10.7335 32.2991 10.6402 32.2991 10.5157 32.2835C9.49442 32.1646 8.21906 32.3715 7.17181 32.3042Z" fill="black"/>
<path d="M29.7033 13.3976C29.8899 13.6769 30.5276 14.0907 30.6572 14.339C30.6935 14.4063 30.7142 14.4425 30.6572 14.5097L14.5597 30.5662C14.373 30.2868 13.7353 29.873 13.6057 29.6247C13.5694 29.5575 13.5487 29.5213 13.6057 29.454L29.7033 13.3976Z" fill="black"/>
<path d="M30.7347 29.542L38.0913 36.8822L37.1478 37.834L29.7859 30.6593C29.7289 30.5921 29.7496 30.5559 29.7859 30.4886C29.9155 30.2403 30.5532 29.8213 30.7398 29.5472L30.7347 29.542Z" fill="black"/>
</svg>
