<svg width="40" height="40" viewBox="0 0 40 40" fill="none" xmlns="http://www.w3.org/2000/svg">
<path d="M0.0141203 33.5959C0.0579601 33.2297 0.331176 32.5183 0.505753 32.174C1.77006 29.6691 5.18252 29.0502 7.25083 30.9345L16.4869 21.753C15.1068 19.8499 14.9103 17.507 15.9961 15.4075C16.0963 15.2134 16.5496 14.7204 16.4603 14.542L11.025 9.10888C10.8535 9.03141 10.1912 9.39998 9.87495 9.44302C6.51729 9.89532 5.26159 5.13987 8.31864 3.90425C10.985 2.82671 13.2851 5.57026 12.0012 8.05872L17.5086 13.567C17.6229 13.6186 18.2272 13.128 18.394 13.0419C20.4803 11.9651 22.7834 12.2163 24.6568 13.5842L31.791 6.39271C29.7712 2.52465 34.0605 -1.59617 37.869 0.624658C40.0892 1.91897 40.7022 4.99745 39.0989 7.03517C37.4518 9.12844 34.6946 9.23799 32.6615 7.62206L25.7215 14.5897C26.0291 15.1884 26.4143 15.7455 26.628 16.3935C27.2058 18.1448 26.8668 20.1958 25.745 21.6505L25.7434 21.8008L31.2547 27.3137C34.2061 25.6328 37.2005 29.5228 34.7611 31.908C32.3953 34.2219 28.5429 31.2913 30.2268 28.3873L24.8142 22.8901L24.5957 22.8282C23.7871 23.3979 22.8594 23.7892 21.8785 23.9465L21.8002 31.2788C24.5331 31.8892 26.2288 34.6656 25.1218 37.3427C24.577 38.6597 23.0801 39.8382 21.6475 39.9994H20.5539C18.7157 39.6879 17.1915 38.3599 16.8283 36.5006C16.339 33.995 17.9971 31.8461 20.4012 31.2788L20.3871 24.038C20.3292 23.8667 19.7867 23.8667 19.5996 23.8103C18.9044 23.599 18.2045 23.2391 17.6056 22.829L17.3872 22.8908L8.22548 32.1365C10.9796 38.4092 1.49371 41.4032 0.0141203 34.7673C0.0454345 34.3933 -0.0297195 33.9605 0.0141203 33.5959ZM35.0633 1.51518C31.6508 2.04652 32.1667 7.67606 35.9737 7.26758C39.7573 6.86144 39.1631 0.876634 35.0633 1.51518ZM10.531 7.56103C11.7679 6.24089 9.85147 4.21257 8.4846 5.47558C7.00501 6.84266 9.20874 8.97193 10.531 7.56103ZM20.5382 13.8581C14.8093 14.5084 15.9773 23.5333 21.9027 22.4855C27.2708 21.5371 26.2303 13.2117 20.5382 13.8581ZM31.6743 30.8351C33.0044 32.2585 35.1651 30.0854 33.7207 28.7497C32.3538 27.4859 30.4139 29.486 31.6743 30.8351ZM4.29633 31.271C0.148771 31.3962 0.872911 37.9116 5.03222 37.0124C8.37735 36.2894 7.77534 31.1661 4.29633 31.271ZM20.6932 32.757C16.9809 33.2602 17.6064 39.0368 21.6037 38.5094C25.1516 38.0415 24.5558 32.2327 20.6932 32.757Z" fill="black"/>
</svg>
