<svg width="59" height="61" viewBox="0 0 59 61" fill="none" xmlns="http://www.w3.org/2000/svg">
<path d="M0 44.1439C0.374034 43.1699 1.51151 43.216 2.31081 42.7598L3.19722 40.3811C3.1921 39.6429 2.29544 38.8175 2.51064 38.11C2.70534 37.4641 4.9393 35.7929 5.41581 35.1008C6.19462 34.7419 7.14763 35.6545 7.90595 35.7519L10.3039 34.7573C10.5601 34.1934 10.7957 32.8246 11.4311 32.6247C11.8359 32.4965 14.9306 32.4965 15.4276 32.5786C15.7914 32.6401 16.1091 32.9323 16.1142 33.3117H16.2935C18.4455 32.1377 20.7 31.0816 23.1235 30.6049C22.3242 29.9794 21.3865 29.5334 20.6077 28.8773C18.3123 26.9548 16.5497 24.125 16.1091 21.1311C12.7581 21.3516 12.0254 16.6814 15.238 15.8201C15.1099 10.9551 17.8409 6.24384 22.0168 3.82926C22.3652 3.62933 24.015 2.97314 24.0868 2.88599C24.1277 2.83473 24.3071 2.02474 24.5479 1.68639C26.208 -0.641029 31.9978 -0.569258 33.4837 1.96322C33.6323 2.21442 33.7348 2.74758 33.8578 2.88086C33.9756 3.0039 35.1079 3.40889 35.4307 3.58319C39.9704 6.09517 42.604 10.5962 42.7013 15.815C45.0275 16.3738 45.4016 19.6855 43.3059 20.8236C42.7577 21.1209 42.3068 21.0594 41.7586 21.2439C41.2052 24.3711 39.4375 27.1701 36.9627 29.1233L34.6878 30.5998C38.8944 31.5123 42.8294 33.691 45.9447 36.6336C46.7132 33.0707 49.9668 30.528 53.6611 31.2508C54.6909 31.4507 55.3929 31.7122 55.0445 32.9426L51.34 36.6951L51.8472 38.3612L53.3485 38.8278L53.5739 38.7406L57.1555 35.1777C59.1588 34.1473 59.1332 37.9819 58.8873 39.1302C58.1751 42.4778 54.8908 44.6002 51.5398 44.2721C52.3904 46.4662 53.4202 48.9936 53.6149 51.362C53.6662 51.9618 53.7174 53.2537 52.831 53.2537H42.189C42.768 56.4936 40.8824 59.672 37.7569 60.6922L36.6553 61.0049H34.8108C30.3685 60.1847 35.6511 57.1395 36.7168 55.5862C36.8808 55.3555 36.476 53.8637 36.3838 53.7714C36.312 53.6997 34.7903 53.3254 34.57 53.4331C33.6989 54.0175 31.5367 56.8884 30.7579 57.1344C29.0824 57.6727 29.0312 54.2021 29.2771 53.2485H24.4813L24.3634 54.1764C23.5693 54.6942 22.2422 56.6474 21.4941 56.9704C20.6897 57.319 19.8238 56.2117 19.0347 56.3449C18.9118 56.3654 16.8725 57.2216 16.7803 57.3036C16.3089 57.7137 16.3396 59.2158 15.5045 59.4721C15.0536 59.6105 12.1843 59.5951 11.6514 59.4977C10.6933 59.3286 10.7548 58.1341 10.3602 57.4676C10.1245 57.0678 8.42345 56.6935 7.92132 56.3296C6.87095 56.4013 6.22023 57.5189 5.15962 56.7653C4.85219 56.55 2.6746 54.3149 2.57212 54.0637C2.24933 53.2639 3.08962 52.5155 3.20234 51.7157L2.26982 49.3217C1.52175 48.7783 0.4099 48.8859 0 47.9631V44.149L0 44.1439ZM40.7133 15.7124C40.6416 11.1242 37.9977 6.82826 33.7655 5.00323L33.5964 5.20829L32.8689 10.7603C32.2335 11.7753 30.9423 11.3601 30.9885 10.1195C31.0653 8.12525 31.757 5.83372 31.8544 3.83439C31.8954 2.97314 31.7878 2.70144 30.9936 2.36309C29.5231 1.73766 26.8433 1.68127 25.9723 3.2551C26.0953 5.33132 26.7101 7.57672 26.8126 9.62731C26.8843 10.9961 26.5205 11.8471 25.1064 10.9653L24.2302 5.01348C20.0031 6.67446 17.1133 11.1755 17.2209 15.7227H21.4019V9.1403C21.4019 8.80195 22.068 8.42772 22.4369 8.4636C22.8058 8.49949 23.3694 9.04289 23.3694 9.38637V15.7227H34.5648V9.1403C34.5648 8.80195 35.2617 8.4431 35.6049 8.46873C35.897 8.48923 36.5324 9.02752 36.5324 9.26333V15.7227H40.7133V15.7124ZM42.5323 19.0088C42.9063 18.6294 42.6552 17.6503 42.0148 17.6759H16.0476C15.0126 17.5529 14.7769 19.0293 15.8017 19.1677H41.8918C42.0814 19.1523 42.399 19.1472 42.5323 19.0088ZM39.7296 21.1311H18.0817C19.5727 27.9955 26.9612 31.7737 33.453 28.9439C36.558 27.5905 39.1711 24.5095 39.7296 21.1311ZM23.9843 51.2851H29.9483C30.9628 49.6087 32.5666 48.3476 34.529 47.9939C35.6921 47.7837 36.6297 48.0605 37.7569 48.0195L46.124 39.6531C39.1916 31.5379 26.6538 29.4002 17.4669 34.9778L19.1475 35.7519C19.9416 35.5981 20.5975 34.8752 21.4378 35.0649C21.7555 35.1367 24.3173 37.664 24.4198 37.987C24.7016 38.8636 23.9228 39.5506 23.764 40.376C24.1739 40.863 24.5172 42.6521 24.9271 42.8982C25.4548 43.2109 26.7357 43.257 26.8997 44.0004C27.0022 44.4566 27.0022 47.6966 26.8792 48.1016C26.6691 48.7731 25.3267 48.9731 24.7477 49.2294L23.9792 51.2954L23.9843 51.2851ZM51.9087 33.1937C49.7363 33.3219 47.902 35.4084 47.8405 37.5615C47.82 38.3971 48.4604 39.7762 48.1018 40.4016L38.505 49.9984C37.7569 50.6545 36.6912 49.8292 35.7228 49.8241C33.5862 49.8138 31.301 51.6747 31.2498 53.874C32.0132 53.428 33.3659 51.4338 34.1447 51.2954C34.5853 51.2133 37.0806 51.8439 37.5469 52.0592C37.7364 52.1464 37.9619 52.3514 38.0644 52.5308C38.2642 52.8846 38.9764 55.617 38.9149 55.94C38.7458 56.8371 36.6861 58.1854 36.1686 59.0415C39.0789 58.5801 40.7082 56.2629 40.1958 53.3562C40.0472 52.5206 39.5861 52.495 40.2317 51.5978L49.5774 42.242C50.3255 41.5397 51.2324 42.2522 52.0983 42.3086C54.4655 42.4624 56.848 40.6835 56.9607 38.2433C56.1666 38.7098 54.7319 40.8322 53.9172 40.9296C53.5535 40.9758 51.1402 40.3093 50.7149 40.1299C50.4638 40.0222 50.2999 39.971 50.1462 39.7146C49.9924 39.4583 49.2239 36.526 49.2649 36.2696C49.4237 35.3366 51.3912 34.0499 51.919 33.1989L51.9087 33.1937ZM24.9527 47.0814L24.9117 45C22.8622 44.472 23.0979 43.7953 22.4472 42.1753C22.1551 41.4474 21.5454 40.8989 21.6991 40.0735C21.8067 39.5096 22.4779 38.9713 22.1449 38.4125C22.0834 38.3049 21.0228 37.2898 20.9408 37.2693C20.4643 37.1411 19.665 37.9665 18.8861 37.864C18.5685 37.823 17.7589 37.2385 17.3337 37.0694C16.811 36.8541 16.0322 36.7259 15.5813 36.485C14.8128 36.0697 14.823 34.6394 14.326 34.542C14.1364 34.5061 12.5122 34.5113 12.4353 34.5625C12.2304 35.0444 12.0562 35.9672 11.6719 36.326C11.4157 36.5618 10.0887 36.9258 9.62753 37.1104C8.97681 37.3718 8.30048 37.987 7.58828 37.8435C7.30135 37.7871 6.17924 37.1155 6.02041 37.1873L4.68823 38.5714C4.60625 38.8841 5.40556 39.9505 5.37482 40.4939C5.35944 40.8117 4.77534 41.6473 4.6165 42.0574C4.37056 42.6624 4.07338 44.0824 3.61225 44.3746C3.35093 44.5387 2.00339 44.9129 1.9624 45.0872L1.98289 47.0814C4.05801 47.4402 3.82744 48.1118 4.49353 49.6754C4.69848 50.1522 5.24672 51.0185 5.3287 51.4286C5.45167 52.0643 4.58063 53.1922 4.72922 53.4946L6.10751 54.8326C6.69162 54.725 7.43456 54.1149 8.01355 54.1816C8.38758 54.2226 9.39184 54.8378 9.84273 55.0326C10.5088 55.3196 11.5387 55.4171 11.9127 56.0374C12.0562 56.2783 12.4046 57.5394 12.4968 57.565L14.5156 57.4984C14.8128 57.0268 14.9255 55.9707 15.3713 55.6477C15.7043 55.4068 16.729 55.2222 17.2107 55.0274C18.1022 54.6686 18.5121 54.0637 19.5574 54.2841C19.9621 54.3712 20.4591 54.7865 20.7461 54.8275C21.1508 54.8839 22.0065 53.7253 22.3447 53.4331C22.1449 52.8641 21.5659 52.0695 21.6427 51.4748C21.694 51.0903 22.3549 50.0291 22.5599 49.5524C22.8161 48.9526 22.8417 48.0503 23.3951 47.6812C23.6564 47.5069 24.9014 47.148 24.9424 47.0763L24.9527 47.0814ZM51.5398 51.2851C51.3297 49.091 50.5612 47.0096 49.6953 45.0103L43.4238 51.2851H51.5398Z" fill="black"/>
<path d="M8.65422 41.1091C15.064 34.7523 24.8299 44.5233 18.3176 50.9622C11.8053 57.401 2.20854 47.5018 8.65422 41.1091ZM13.2605 41.0988C6.73281 41.3962 7.28106 51.562 14.0803 50.9109C20.1724 50.3265 19.5832 40.8118 13.2605 41.0988Z" fill="black"/>
</svg>
