<svg width="51" height="40" viewBox="0 0 51 40" fill="none" xmlns="http://www.w3.org/2000/svg">
<path d="M50.6656 14.1612V25.6719C50.5816 25.7773 50.3224 26.2161 50.2057 26.2161H47.3433L43.7721 29.3943C43.0242 31.1324 43.0693 34.059 41.0224 35.023C39.5953 35.6944 37.1479 35.7253 35.9513 36.3286C35.0549 36.7801 33.591 38.5918 32.6188 39.2651C32.0789 39.6394 31.4919 39.8548 30.8321 39.9919H30.4234L25.2693 38.8181L20.3017 39.9919C20.105 39.9756 19.8766 40.0165 19.6881 39.9919C17.8553 39.7548 16.0871 37.3107 14.6713 36.3277C12.9041 35.6753 9.82354 35.6789 8.60443 34.2743C7.56256 33.0732 7.55436 30.9571 6.93968 29.5869C6.66718 28.98 4.81188 27.6508 4.19413 27.1265C3.89807 26.8749 3.68908 26.4842 3.32847 26.2625C2.81624 26.0562 1.19759 26.3243 0.52145 26.2134C0.228454 26.1653 0.0717121 25.9099 0 25.6783L0.0512229 14.1094C0.441542 13.2226 2.57344 13.8077 3.42989 13.5697C3.76796 13.3498 3.94929 13.0036 4.24638 12.7529C4.85901 12.2341 6.67128 10.933 6.93968 10.3361C7.70188 8.63703 7.51338 5.88223 9.6002 4.90006C11.0355 4.22499 13.445 4.21227 14.6713 3.59444C15.4878 3.18286 16.965 1.43749 17.8471 0.790582C20.2095 -0.94207 22.6774 0.647935 25.2693 1.10495C27.7577 0.743336 30.3906 -0.927533 32.6741 0.700633C33.6125 1.37025 35.0795 3.15288 35.9524 3.59535C36.7033 3.97604 38.9796 4.2577 39.9846 4.55208C41.2007 4.90915 41.9413 5.25804 42.4638 6.34288C42.9791 7.41137 43.2998 9.90086 43.8622 10.6314C44.3037 11.2047 45.5157 12.0124 46.1201 12.5276C46.5084 12.8592 46.7963 13.249 47.1927 13.5706C48.3135 13.8295 49.9475 13.1681 50.6667 14.1612H50.6656ZM45.2473 13.6169L42.5007 11.2028C42.0079 9.969 41.8153 8.64794 41.3646 7.40682C41.0101 6.43374 40.8267 6.16389 39.7049 5.79683C38.5104 5.40523 36.1296 5.20716 35.1922 4.72198C34.3378 4.27951 33.0798 2.72039 32.2643 2.06077C31.329 1.30302 30.9827 1.1313 29.7021 1.33209C28.4216 1.53289 26.0551 2.50234 24.9773 2.35696C23.6793 2.18252 22.1785 1.5238 20.8354 1.31665C19.5231 1.11403 19.1215 1.42295 18.2026 2.19524C17.4578 2.82125 16.2264 4.30949 15.4294 4.72198C14.492 5.20716 12.1112 5.40614 10.9166 5.79683C9.72211 6.18752 9.58893 6.4719 9.2314 7.47587C8.796 8.697 8.60443 9.99263 8.11986 11.2038L5.37329 13.6178H45.2473V13.6169ZM49.2345 14.9771H1.38609V24.9469H49.2345V14.9771ZM45.2473 26.2152H5.37329C5.32924 26.3733 5.44705 26.396 5.52593 26.4878C6.09963 27.1529 7.68037 28.0115 8.11986 28.7202C8.6034 29.4997 8.88411 31.4731 9.2314 32.4481C9.58893 33.4511 9.75387 33.7455 10.9166 34.1271C12.0794 34.5087 14.45 34.695 15.4294 35.2019C15.9211 35.4563 17.049 36.612 17.5428 37.0445C18.2108 37.6278 19.0642 38.7172 20.1193 38.699C21.5997 38.6736 23.5072 37.7623 24.9773 37.567C26.053 37.4243 28.4779 38.3856 29.7021 38.5918C31.1517 38.8371 31.5748 38.451 32.5737 37.5933C33.2591 37.0046 34.4403 35.5917 35.1922 35.2019C36.1296 34.7168 38.5104 34.5187 39.7049 34.1271C40.8267 33.7591 41.0101 33.4902 41.3646 32.5171C41.7272 31.5195 42.0079 29.5161 42.5007 28.7211C42.9412 28.0115 44.4994 27.1783 45.0946 26.4887C45.1735 26.3969 45.2913 26.3742 45.2473 26.2161V26.2152Z" fill="black"/>
<path d="M29.5774 16.7143C30.3335 16.5753 30.6582 17.2721 30.2648 17.7827C28.3071 19.2973 26.5245 21.4207 24.5463 22.8644C24.2031 23.1152 23.8681 23.395 23.4133 23.1388C22.9891 22.541 20.3798 20.7265 20.22 20.2613C20.0223 19.6853 20.4987 19.2619 21.1492 19.4373C21.5836 19.5545 23.5178 21.7241 23.8138 21.6778L29.5774 16.7152V16.7143Z" fill="black"/>
<path d="M8.411 19.3454C9.1609 19.1519 10.5429 19.36 10.0255 20.324C9.80119 20.7419 7.86087 20.8419 7.91926 19.916C7.93258 19.7116 8.19791 19.3999 8.411 19.3454Z" fill="black"/>
<path d="M41.0269 19.3464C41.5073 19.2528 42.4969 19.2446 42.6711 19.7544C43.0389 20.8283 40.7523 20.8092 40.5648 20.2622C40.4316 19.8743 40.5392 19.4418 41.0269 19.3473V19.3464Z" fill="black"/>
<path d="M14.2396 19.3455C14.7989 19.201 15.8797 19.2319 15.9125 19.9179C15.9484 20.6811 14.9659 20.702 14.3236 20.5938C13.6188 20.4748 13.5675 19.519 14.2406 19.3455H14.2396Z" fill="black"/>
<path d="M35.1988 19.3464C35.8985 19.2037 37.2303 19.3537 36.8103 20.2313C36.6034 20.6638 35.8258 20.6447 35.3802 20.5975C34.4725 20.5003 34.5268 19.4836 35.1999 19.3464H35.1988Z" fill="black"/>
<path d="M25.0769 34.4814C26.296 34.1535 26.4138 36.3804 25.3463 36.4303C24.2788 36.4803 24.3475 34.6777 25.0769 34.4814Z" fill="black"/>
<path d="M13.018 30.0403C13.6901 29.8922 14.2074 30.4964 13.7577 31.0642C13.394 31.5221 12.5591 32.1491 12.0807 31.464C11.7241 30.9534 12.515 30.1511 13.018 30.0412V30.0403Z" fill="black"/>
<path d="M20.7827 33.9353C22.0674 33.7572 21.6177 35.9169 20.6762 35.8896C19.5278 35.856 20.0257 34.0398 20.7827 33.9353Z" fill="black"/>
<path d="M29.6822 33.9363C30.5888 33.8672 31.1287 35.8561 29.9455 35.8897C29.1136 35.9133 28.5256 34.0244 29.6822 33.9363Z" fill="black"/>
<path d="M37.2456 30.0376C38.0682 29.8886 39.2361 31.3205 38.2936 31.6967C37.3358 32.0792 35.8902 30.2829 37.2456 30.0376Z" fill="black"/>
<path d="M16.488 32.488C18.0616 32.0682 17.409 34.3832 16.2718 34.2815C15.1347 34.1797 15.9737 32.6252 16.488 32.488Z" fill="black"/>
<path d="M33.5628 32.4889C34.7143 32.1882 35.542 34.2897 34.2563 34.287C33.447 34.2852 32.7043 32.7133 33.5628 32.4889Z" fill="black"/>
<path d="M25.2757 3.49358C26.2336 3.44906 26.292 5.06269 25.6547 5.35707C24.3701 5.95127 24.1498 3.54537 25.2757 3.49358Z" fill="black"/>
<path d="M20.6769 4.03326C21.5559 4.00782 22.0938 6.02304 20.8613 5.99487C20.0408 5.97579 19.5039 4.06778 20.6769 4.03326Z" fill="black"/>
<path d="M29.8757 4.0342C31.0958 3.9388 30.6389 5.974 29.761 5.99399C28.5531 6.02216 29.05 4.09871 29.8757 4.0342Z" fill="black"/>
<path d="M12.3984 8.19817C13.1974 7.98647 14.5682 9.30481 13.5929 9.79908C12.6176 10.2933 11.2981 8.48982 12.3984 8.19817Z" fill="black"/>
<path d="M37.6512 8.19813C38.9697 7.84197 38.8785 9.4665 37.6768 9.85356C37.1984 10.0071 36.6277 9.68547 36.6605 9.22846C36.6769 8.9995 37.436 8.25719 37.6512 8.19813Z" fill="black"/>
<path d="M16.1829 5.65959C17.1551 5.4697 17.8732 7.12603 17.1295 7.40587C16.0599 7.80837 15.0887 5.8731 16.1829 5.65959Z" fill="black"/>
<path d="M33.9723 5.65868C35.5438 5.24346 34.9025 7.663 33.6475 7.45221C32.6753 7.28957 33.4672 5.79224 33.9723 5.65868Z" fill="black"/>
</svg>
